M48
; DRILL file {KiCad (6.0.2)} date Mon Apr  3 14:54:59 2023
; FORMAT={-:-/ absolute / inch / decimal}
; #@! TF.CreationDate,2023-04-03T14:54:59+02:00
; #@! TF.GenerationSoftware,Kicad,Pcbnew,(6.0.2)
; #@! TF.FileFunction,Plated,1,2,PTH
FMAT,2
INCH
; #@! TA.AperFunction,Plated,PTH,ViaDrill
T1C0.0157
; #@! TA.AperFunction,Plated,PTH,ComponentDrill
T2C0.0256
; #@! TA.AperFunction,Plated,PTH,ComponentDrill
T3C0.0354
; #@! TA.AperFunction,Plated,PTH,ComponentDrill
T4C0.0394
%
G90
G05
T1
X5.2864Y-4.188
X5.3691Y-3.8091
X5.4803Y-3.7766
X5.5049Y-4.1181
X5.5906Y-3.8455
X5.7274Y-3.8514
X5.7776Y-4.3356
X5.8069Y-4.249
X5.8533Y-3.748
X5.8829Y-4.2856
X5.9223Y-4.3256
X5.9528Y-4.2688
X6.0157Y-4.3081
X6.1142Y-4.0974
X6.1152Y-4.0344
X6.1181Y-4.2136
X6.1398Y-4.3927
X6.1407Y-3.7785
X6.3661Y-4.0423
X6.44Y-4.2037
X6.4705Y-3.8789
X6.6171Y-3.7461
X6.6211Y-4.3455
X6.9134Y-4.1909
X7.0295Y-3.8927
X7.3248Y-4.3081
X7.3278Y-3.8287
T2
X5.1533Y-4.3219
X5.1533Y-4.3719
X5.2033Y-4.3219
X5.2033Y-4.3719
X5.2533Y-4.3219
X5.2533Y-4.3719
X5.3033Y-4.3219
X5.3033Y-4.3719
X5.3533Y-4.3219
X5.3533Y-4.3719
T3
X7.3189Y-3.9911
X7.3189Y-4.0911
T4
X5.1756Y-3.7382
X5.1772Y-3.8831
X5.1772Y-3.9831
X5.1772Y-4.0831
X5.1772Y-4.1831
X5.2756Y-3.7382
T0
M30
