%TF.GenerationSoftware,KiCad,Pcbnew,(6.0.2)*%
%TF.CreationDate,2023-04-03T14:54:34+02:00*%
%TF.ProjectId,IR_lights,49525f6c-6967-4687-9473-2e6b69636164,rev?*%
%TF.SameCoordinates,Original*%
%TF.FileFunction,Copper,L2,Bot*%
%TF.FilePolarity,Positive*%
%FSLAX46Y46*%
G04 Gerber Fmt 4.6, Leading zero omitted, Abs format (unit mm)*
G04 Created by KiCad (PCBNEW (6.0.2)) date 2023-04-03 14:54:34*
%MOMM*%
%LPD*%
G01*
G04 APERTURE LIST*
G04 Aperture macros list*
%AMRoundRect*
0 Rectangle with rounded corners*
0 $1 Rounding radius*
0 $2 $3 $4 $5 $6 $7 $8 $9 X,Y pos of 4 corners*
0 Add a 4 corners polygon primitive as box body*
4,1,4,$2,$3,$4,$5,$6,$7,$8,$9,$2,$3,0*
0 Add four circle primitives for the rounded corners*
1,1,$1+$1,$2,$3*
1,1,$1+$1,$4,$5*
1,1,$1+$1,$6,$7*
1,1,$1+$1,$8,$9*
0 Add four rect primitives between the rounded corners*
20,1,$1+$1,$2,$3,$4,$5,0*
20,1,$1+$1,$4,$5,$6,$7,0*
20,1,$1+$1,$6,$7,$8,$9,0*
20,1,$1+$1,$8,$9,$2,$3,0*%
G04 Aperture macros list end*
%TA.AperFunction,ComponentPad*%
%ADD10R,1.700000X1.700000*%
%TD*%
%TA.AperFunction,ComponentPad*%
%ADD11O,1.700000X1.700000*%
%TD*%
%TA.AperFunction,ComponentPad*%
%ADD12R,1.000000X1.000000*%
%TD*%
%TA.AperFunction,ComponentPad*%
%ADD13O,1.000000X1.000000*%
%TD*%
%TA.AperFunction,ComponentPad*%
%ADD14R,1.800000X1.800000*%
%TD*%
%TA.AperFunction,ComponentPad*%
%ADD15C,1.800000*%
%TD*%
%TA.AperFunction,SMDPad,CuDef*%
%ADD16RoundRect,0.140000X-0.140000X-0.170000X0.140000X-0.170000X0.140000X0.170000X-0.140000X0.170000X0*%
%TD*%
%TA.AperFunction,SMDPad,CuDef*%
%ADD17RoundRect,0.135000X0.135000X0.185000X-0.135000X0.185000X-0.135000X-0.185000X0.135000X-0.185000X0*%
%TD*%
%TA.AperFunction,SMDPad,CuDef*%
%ADD18RoundRect,0.381000X-0.381000X0.762000X-0.381000X-0.762000X0.381000X-0.762000X0.381000X0.762000X0*%
%TD*%
%TA.AperFunction,ViaPad*%
%ADD19C,0.800000*%
%TD*%
%TA.AperFunction,Conductor*%
%ADD20C,0.350000*%
%TD*%
%TA.AperFunction,Conductor*%
%ADD21C,0.150000*%
%TD*%
G04 APERTURE END LIST*
D10*
%TO.P,J2,1,Pin_1*%
%TO.N,/SCL*%
X131500000Y-106250000D03*
D11*
%TO.P,J2,2,Pin_2*%
%TO.N,/SDA*%
X131500000Y-103710000D03*
%TO.P,J2,3,Pin_3*%
%TO.N,+3V3*%
X131500000Y-101170000D03*
%TO.P,J2,4,Pin_4*%
%TO.N,GND*%
X131500000Y-98630000D03*
%TD*%
D10*
%TO.P,J3,1,Pin_1*%
%TO.N,+3V3*%
X134000000Y-94950000D03*
D11*
%TO.P,J3,2,Pin_2*%
%TO.N,GND*%
X131460000Y-94950000D03*
%TD*%
D12*
%TO.P,J1,1,Pin_1*%
%TO.N,+3V3*%
X135975000Y-109775000D03*
D13*
%TO.P,J1,2,Pin_2*%
%TO.N,/SWDIO*%
X135975000Y-111045000D03*
%TO.P,J1,3,Pin_3*%
%TO.N,GND*%
X134705000Y-109775000D03*
%TO.P,J1,4,Pin_4*%
%TO.N,/SWDCLK*%
X134705000Y-111045000D03*
%TO.P,J1,5,Pin_5*%
%TO.N,GND*%
X133435000Y-109775000D03*
%TO.P,J1,6,Pin_6*%
%TO.N,unconnected-(J1-Pad6)*%
X133435000Y-111045000D03*
%TO.P,J1,7,Pin_7*%
%TO.N,unconnected-(J1-Pad7)*%
X132165000Y-109775000D03*
%TO.P,J1,8,Pin_8*%
%TO.N,unconnected-(J1-Pad8)*%
X132165000Y-111045000D03*
%TO.P,J1,9,Pin_9*%
%TO.N,GND*%
X130895000Y-109775000D03*
%TO.P,J1,10,Pin_10*%
%TO.N,/RESET*%
X130895000Y-111045000D03*
%TD*%
D14*
%TO.P,D4,1,K*%
%TO.N,Net-(D4-Pad1)*%
X185900000Y-101375000D03*
D15*
%TO.P,D4,2,A*%
%TO.N,Net-(D4-Pad2)*%
X185900000Y-103915000D03*
%TD*%
D16*
%TO.P,C6,1*%
%TO.N,GND*%
X175270000Y-95025000D03*
%TO.P,C6,2*%
%TO.N,/ON_OFF*%
X176230000Y-95025000D03*
%TD*%
%TO.P,C7,1*%
%TO.N,GND*%
X159195000Y-95100000D03*
%TO.P,C7,2*%
%TO.N,/DAY*%
X160155000Y-95100000D03*
%TD*%
D17*
%TO.P,R5,1*%
%TO.N,/NIGHT*%
X143750000Y-96100000D03*
%TO.P,R5,2*%
%TO.N,Net-(R5-Pad2)*%
X142730000Y-96100000D03*
%TD*%
D18*
%TO.P,SW1,1,1*%
%TO.N,Net-(R5-Pad2)*%
X141425000Y-94750000D03*
%TO.P,SW1,2,2*%
%TO.N,GND*%
X141425000Y-110750000D03*
%TO.P,SW1,3,3*%
X146425000Y-94750000D03*
%TO.P,SW1,4,4*%
X146425000Y-110750000D03*
%TD*%
D17*
%TO.P,R4,1*%
%TO.N,/ON_OFF*%
X176265000Y-96050000D03*
%TO.P,R4,2*%
%TO.N,Net-(R4-Pad2)*%
X175245000Y-96050000D03*
%TD*%
%TO.P,R6,1*%
%TO.N,/DAY*%
X160190000Y-96100000D03*
%TO.P,R6,2*%
%TO.N,Net-(R6-Pad2)*%
X159170000Y-96100000D03*
%TD*%
D18*
%TO.P,SW3,1,1*%
%TO.N,Net-(R4-Pad2)*%
X173950000Y-94700000D03*
%TO.P,SW3,2,2*%
%TO.N,GND*%
X173950000Y-110700000D03*
%TO.P,SW3,3,3*%
X178950000Y-94700000D03*
%TO.P,SW3,4,4*%
X178950000Y-110700000D03*
%TD*%
%TO.P,SW2,1,1*%
%TO.N,Net-(R6-Pad2)*%
X157875000Y-94750000D03*
%TO.P,SW2,2,2*%
%TO.N,GND*%
X157875000Y-110750000D03*
%TO.P,SW2,3,3*%
X162875000Y-94750000D03*
%TO.P,SW2,4,4*%
X162875000Y-110750000D03*
%TD*%
D16*
%TO.P,C1,1*%
%TO.N,GND*%
X142745000Y-95075000D03*
%TO.P,C1,2*%
%TO.N,/NIGHT*%
X143705000Y-95075000D03*
%TD*%
D19*
%TO.N,GND*%
X161700000Y-102675000D03*
X178550000Y-98875000D03*
X164350000Y-98525000D03*
X163575000Y-106775000D03*
X139825000Y-104600000D03*
X168075000Y-95150000D03*
X175600000Y-106450000D03*
X146750000Y-110125000D03*
X149425000Y-108855000D03*
X147495000Y-107925000D03*
X186050000Y-109425000D03*
X136375000Y-96750000D03*
X186125000Y-97250000D03*
X155400000Y-107025000D03*
X168175000Y-110375000D03*
X155975000Y-95975000D03*
X139200000Y-95925000D03*
X155950000Y-111575000D03*
X148675000Y-95200000D03*
X134275000Y-106375000D03*
X142000000Y-97675000D03*
%TO.N,/NIGHT*%
X145475000Y-97825000D03*
%TO.N,+3V3*%
X150426166Y-109871166D03*
X152800000Y-109425000D03*
%TO.N,/ON_OFF*%
X155300000Y-104075000D03*
%TO.N,/DAY*%
X155325000Y-102475000D03*
%TO.N,/SWDCLK*%
X151199865Y-108427724D03*
%TD*%
D20*
%TO.N,GND*%
X130325489Y-99804511D02*
X131500000Y-98630000D01*
D21*
X148495000Y-107925000D02*
X149425000Y-108855000D01*
X147495000Y-107925000D02*
X148495000Y-107925000D01*
D20*
X130895000Y-109775000D02*
X130325489Y-109205489D01*
D21*
X148155000Y-110125000D02*
X149425000Y-108855000D01*
X146750000Y-110125000D02*
X148155000Y-110125000D01*
D20*
X130325489Y-109205489D02*
X130325489Y-99804511D01*
X159195000Y-93755000D02*
X159225000Y-93725000D01*
X159195000Y-95100000D02*
X159195000Y-93755000D01*
%TO.N,/NIGHT*%
X143750000Y-95120000D02*
X143705000Y-95075000D01*
D21*
X145475000Y-97825000D02*
X143750000Y-96100000D01*
D20*
X143750000Y-96100000D02*
X143750000Y-95120000D01*
D21*
%TO.N,+3V3*%
X152353834Y-109871166D02*
X150426166Y-109871166D01*
D20*
X131500000Y-101170000D02*
X135975000Y-105645000D01*
X134000000Y-98670000D02*
X134000000Y-94950000D01*
D21*
X152800000Y-109425000D02*
X152353834Y-109871166D01*
D20*
X131500000Y-101170000D02*
X134000000Y-98670000D01*
X135975000Y-105645000D02*
X135975000Y-109775000D01*
%TO.N,/ON_OFF*%
X176265000Y-96050000D02*
X168240000Y-104075000D01*
X168240000Y-104075000D02*
X155300000Y-104075000D01*
X176265000Y-95060000D02*
X176230000Y-95025000D01*
X176265000Y-96050000D02*
X176265000Y-95060000D01*
%TO.N,/DAY*%
X160190000Y-96100000D02*
X160190000Y-95135000D01*
X160190000Y-97610000D02*
X155325000Y-102475000D01*
X160190000Y-96100000D02*
X160190000Y-97610000D01*
X160190000Y-95135000D02*
X160155000Y-95100000D01*
D21*
%TO.N,/SWDCLK*%
X135885000Y-112225000D02*
X134705000Y-111045000D01*
X150897276Y-108427724D02*
X147100000Y-112225000D01*
X147100000Y-112225000D02*
X135885000Y-112225000D01*
X151199865Y-108427724D02*
X150897276Y-108427724D01*
D20*
%TO.N,Net-(R4-Pad2)*%
X173950000Y-94755000D02*
X175245000Y-96050000D01*
X173950000Y-94700000D02*
X173950000Y-94755000D01*
%TO.N,Net-(R5-Pad2)*%
X141425000Y-94750000D02*
X141425000Y-94795000D01*
X141425000Y-94795000D02*
X142730000Y-96100000D01*
%TO.N,Net-(R6-Pad2)*%
X157875000Y-94750000D02*
X157875000Y-94805000D01*
X157875000Y-94805000D02*
X159170000Y-96100000D01*
%TD*%
%TA.AperFunction,Conductor*%
%TO.N,GND*%
G36*
X140148953Y-93553002D02*
G01*
X140195446Y-93606658D01*
X140205550Y-93676932D01*
X140202539Y-93691611D01*
X140168614Y-93818222D01*
X140160612Y-93848085D01*
X140160159Y-93853841D01*
X140158629Y-93873286D01*
X140154500Y-93925742D01*
X140154500Y-95574258D01*
X140154693Y-95576706D01*
X140154693Y-95576714D01*
X140156224Y-95596159D01*
X140160612Y-95651915D01*
X140162105Y-95657488D01*
X140162106Y-95657492D01*
X140197184Y-95788404D01*
X140209006Y-95832524D01*
X140293893Y-95999125D01*
X140411564Y-96144436D01*
X140416690Y-96148587D01*
X140550202Y-96256703D01*
X140556875Y-96262107D01*
X140723476Y-96346994D01*
X140729849Y-96348702D01*
X140729850Y-96348702D01*
X140898508Y-96393894D01*
X140898512Y-96393895D01*
X140904085Y-96395388D01*
X140909841Y-96395841D01*
X140979286Y-96401307D01*
X140979294Y-96401307D01*
X140981742Y-96401500D01*
X141864135Y-96401500D01*
X141932256Y-96421502D01*
X141978749Y-96475158D01*
X141985132Y-96492346D01*
X141999731Y-96542596D01*
X142003766Y-96549418D01*
X142003766Y-96549419D01*
X142066885Y-96656147D01*
X142082494Y-96682541D01*
X142197459Y-96797506D01*
X142204280Y-96801540D01*
X142326520Y-96873832D01*
X142337404Y-96880269D01*
X142345015Y-96882480D01*
X142345017Y-96882481D01*
X142435750Y-96908841D01*
X142493534Y-96925629D01*
X142499941Y-96926133D01*
X142499945Y-96926134D01*
X142527556Y-96928307D01*
X142527562Y-96928307D01*
X142530011Y-96928500D01*
X142729878Y-96928500D01*
X142929988Y-96928499D01*
X142966466Y-96925629D01*
X143066501Y-96896566D01*
X143114983Y-96882481D01*
X143114985Y-96882480D01*
X143122596Y-96880269D01*
X143129421Y-96876233D01*
X143129425Y-96876231D01*
X143175861Y-96848769D01*
X143244677Y-96831309D01*
X143304139Y-96848769D01*
X143350575Y-96876231D01*
X143350579Y-96876233D01*
X143357404Y-96880269D01*
X143365015Y-96882480D01*
X143365017Y-96882481D01*
X143455750Y-96908841D01*
X143513534Y-96925629D01*
X143519941Y-96926133D01*
X143519945Y-96926134D01*
X143547556Y-96928307D01*
X143547562Y-96928307D01*
X143550011Y-96928500D01*
X143559194Y-96928500D01*
X143701116Y-96928499D01*
X143769236Y-96948501D01*
X143790211Y-96965404D01*
X144527398Y-97702591D01*
X144561424Y-97764903D01*
X144563613Y-97804855D01*
X144561496Y-97825000D01*
X144562186Y-97831565D01*
X144579187Y-97993317D01*
X144581458Y-98014928D01*
X144640473Y-98196556D01*
X144735960Y-98361944D01*
X144740378Y-98366851D01*
X144740379Y-98366852D01*
X144747111Y-98374329D01*
X144863747Y-98503866D01*
X145018248Y-98616118D01*
X145024276Y-98618802D01*
X145024278Y-98618803D01*
X145186681Y-98691109D01*
X145192712Y-98693794D01*
X145284160Y-98713232D01*
X145373056Y-98732128D01*
X145373061Y-98732128D01*
X145379513Y-98733500D01*
X145570487Y-98733500D01*
X145576939Y-98732128D01*
X145576944Y-98732128D01*
X145665840Y-98713232D01*
X145757288Y-98693794D01*
X145763319Y-98691109D01*
X145925722Y-98618803D01*
X145925724Y-98618802D01*
X145931752Y-98616118D01*
X146086253Y-98503866D01*
X146202889Y-98374329D01*
X146209621Y-98366852D01*
X146209622Y-98366851D01*
X146214040Y-98361944D01*
X146309527Y-98196556D01*
X146368542Y-98014928D01*
X146370814Y-97993317D01*
X146387814Y-97831565D01*
X146388504Y-97825000D01*
X146383112Y-97773695D01*
X146369232Y-97641635D01*
X146369232Y-97641633D01*
X146368542Y-97635072D01*
X146309527Y-97453444D01*
X146214040Y-97288056D01*
X146086253Y-97146134D01*
X145931752Y-97033882D01*
X145925724Y-97031198D01*
X145925722Y-97031197D01*
X145763319Y-96958891D01*
X145763318Y-96958891D01*
X145757288Y-96956206D01*
X145663888Y-96936353D01*
X145576944Y-96917872D01*
X145576939Y-96917872D01*
X145570487Y-96916500D01*
X145443883Y-96916500D01*
X145375762Y-96896498D01*
X145354788Y-96879595D01*
X144565404Y-96090211D01*
X144531378Y-96027899D01*
X144528499Y-96001116D01*
X144528499Y-95850012D01*
X144525629Y-95813534D01*
X144480269Y-95657404D01*
X144453711Y-95612498D01*
X144443374Y-95571755D01*
X145155000Y-95571755D01*
X145155193Y-95576681D01*
X145160655Y-95646081D01*
X145162602Y-95657413D01*
X145207767Y-95825970D01*
X145212471Y-95838223D01*
X145291318Y-95992968D01*
X145298470Y-96003982D01*
X145407768Y-96138955D01*
X145417045Y-96148232D01*
X145552018Y-96257530D01*
X145563032Y-96264682D01*
X145717777Y-96343529D01*
X145730030Y-96348233D01*
X145898587Y-96393398D01*
X145909919Y-96395345D01*
X145979319Y-96400807D01*
X145984245Y-96401000D01*
X146152885Y-96401000D01*
X146168124Y-96396525D01*
X146169329Y-96395135D01*
X146171000Y-96387452D01*
X146171000Y-96382885D01*
X146679000Y-96382885D01*
X146683475Y-96398124D01*
X146684865Y-96399329D01*
X146692548Y-96401000D01*
X146865755Y-96401000D01*
X146870681Y-96400807D01*
X146940081Y-96395345D01*
X146951413Y-96393398D01*
X147119970Y-96348233D01*
X147132223Y-96343529D01*
X147286968Y-96264682D01*
X147297982Y-96257530D01*
X147432955Y-96148232D01*
X147442232Y-96138955D01*
X147551530Y-96003982D01*
X147558682Y-95992968D01*
X147637529Y-95838223D01*
X147642233Y-95825970D01*
X147687398Y-95657413D01*
X147689345Y-95646081D01*
X147694807Y-95576681D01*
X147695000Y-95571755D01*
X147695000Y-95022115D01*
X147690525Y-95006876D01*
X147689135Y-95005671D01*
X147681452Y-95004000D01*
X146697115Y-95004000D01*
X146681876Y-95008475D01*
X146680671Y-95009865D01*
X146679000Y-95017548D01*
X146679000Y-96382885D01*
X146171000Y-96382885D01*
X146171000Y-95022115D01*
X146166525Y-95006876D01*
X146165135Y-95005671D01*
X146157452Y-95004000D01*
X145173115Y-95004000D01*
X145157876Y-95008475D01*
X145156671Y-95009865D01*
X145155000Y-95017548D01*
X145155000Y-95571755D01*
X144443374Y-95571755D01*
X144436252Y-95543683D01*
X144445093Y-95504655D01*
X144444894Y-95504597D01*
X144445859Y-95501275D01*
X144490606Y-95347254D01*
X144491340Y-95337940D01*
X144493307Y-95312940D01*
X144493307Y-95312932D01*
X144493500Y-95310484D01*
X144493500Y-94839516D01*
X144492574Y-94827746D01*
X144491111Y-94809156D01*
X144491110Y-94809151D01*
X144490606Y-94802746D01*
X144444894Y-94645403D01*
X144419827Y-94603016D01*
X144365522Y-94511192D01*
X144361488Y-94504371D01*
X144245629Y-94388512D01*
X144154477Y-94334605D01*
X144111420Y-94309141D01*
X144111419Y-94309141D01*
X144104597Y-94305106D01*
X144096986Y-94302895D01*
X144096984Y-94302894D01*
X144031567Y-94283889D01*
X143947254Y-94259394D01*
X143940849Y-94258890D01*
X143940844Y-94258889D01*
X143912940Y-94256693D01*
X143912932Y-94256693D01*
X143910484Y-94256500D01*
X143499516Y-94256500D01*
X143497068Y-94256693D01*
X143497060Y-94256693D01*
X143469156Y-94258889D01*
X143469151Y-94258890D01*
X143462746Y-94259394D01*
X143378433Y-94283889D01*
X143313016Y-94302894D01*
X143313014Y-94302895D01*
X143305403Y-94305106D01*
X143298576Y-94309143D01*
X143298577Y-94309143D01*
X143288647Y-94315015D01*
X143219830Y-94332474D01*
X143160372Y-94315016D01*
X143151222Y-94309605D01*
X143136784Y-94303357D01*
X143016395Y-94268381D01*
X143002295Y-94268421D01*
X142999000Y-94275691D01*
X142999000Y-94553621D01*
X142981454Y-94617760D01*
X142965106Y-94645403D01*
X142962895Y-94653014D01*
X142962894Y-94653016D01*
X142942497Y-94723224D01*
X142904284Y-94783059D01*
X142839788Y-94812737D01*
X142769485Y-94802834D01*
X142715697Y-94756494D01*
X142695500Y-94688071D01*
X142695500Y-93925742D01*
X142691372Y-93873286D01*
X142689841Y-93853841D01*
X142689388Y-93848085D01*
X142681387Y-93818222D01*
X142647461Y-93691611D01*
X142649151Y-93620635D01*
X142688945Y-93561839D01*
X142754209Y-93533891D01*
X142769168Y-93533000D01*
X145081349Y-93533000D01*
X145149470Y-93553002D01*
X145195963Y-93606658D01*
X145206067Y-93676932D01*
X145203056Y-93691611D01*
X145162602Y-93842587D01*
X145160655Y-93853919D01*
X145155193Y-93923319D01*
X145155000Y-93928246D01*
X145155000Y-94477885D01*
X145159475Y-94493124D01*
X145160865Y-94494329D01*
X145168548Y-94496000D01*
X147676885Y-94496000D01*
X147692124Y-94491525D01*
X147693329Y-94490135D01*
X147695000Y-94482452D01*
X147695000Y-93928246D01*
X147694807Y-93923319D01*
X147689345Y-93853919D01*
X147687398Y-93842587D01*
X147646944Y-93691611D01*
X147648634Y-93620635D01*
X147688428Y-93561839D01*
X147753693Y-93533891D01*
X147768651Y-93533000D01*
X156530832Y-93533000D01*
X156598953Y-93553002D01*
X156645446Y-93606658D01*
X156655550Y-93676932D01*
X156652539Y-93691611D01*
X156618614Y-93818222D01*
X156610612Y-93848085D01*
X156610159Y-93853841D01*
X156608629Y-93873286D01*
X156604500Y-93925742D01*
X156604500Y-95574258D01*
X156604693Y-95576706D01*
X156604693Y-95576714D01*
X156606224Y-95596159D01*
X156610612Y-95651915D01*
X156612105Y-95657488D01*
X156612106Y-95657492D01*
X156647184Y-95788404D01*
X156659006Y-95832524D01*
X156743893Y-95999125D01*
X156861564Y-96144436D01*
X156866690Y-96148587D01*
X157000202Y-96256703D01*
X157006875Y-96262107D01*
X157173476Y-96346994D01*
X157179849Y-96348702D01*
X157179850Y-96348702D01*
X157348508Y-96393894D01*
X157348512Y-96393895D01*
X157354085Y-96395388D01*
X157359841Y-96395841D01*
X157429286Y-96401307D01*
X157429294Y-96401307D01*
X157431742Y-96401500D01*
X158304135Y-96401500D01*
X158372256Y-96421502D01*
X158418749Y-96475158D01*
X158425132Y-96492345D01*
X158439731Y-96542596D01*
X158443766Y-96549418D01*
X158443766Y-96549419D01*
X158506885Y-96656147D01*
X158522494Y-96682541D01*
X158637459Y-96797506D01*
X158644280Y-96801540D01*
X158766520Y-96873832D01*
X158777404Y-96880269D01*
X158785015Y-96882480D01*
X158785017Y-96882481D01*
X158875750Y-96908841D01*
X158933534Y-96925629D01*
X158939941Y-96926133D01*
X158939945Y-96926134D01*
X158967556Y-96928307D01*
X158967562Y-96928307D01*
X158970011Y-96928500D01*
X159169878Y-96928500D01*
X159369988Y-96928499D01*
X159372450Y-96928305D01*
X159374928Y-96928208D01*
X159374972Y-96929341D01*
X159440183Y-96943094D01*
X159490702Y-96992976D01*
X159506500Y-97054062D01*
X159506500Y-97274695D01*
X159486498Y-97342816D01*
X159469595Y-97363790D01*
X155302050Y-101531335D01*
X155239738Y-101565361D01*
X155232654Y-101566500D01*
X155229513Y-101566500D01*
X155223060Y-101567872D01*
X155223057Y-101567872D01*
X155177108Y-101577639D01*
X155042712Y-101606206D01*
X155036682Y-101608891D01*
X155036681Y-101608891D01*
X154874278Y-101681197D01*
X154874276Y-101681198D01*
X154868248Y-101683882D01*
X154713747Y-101796134D01*
X154585960Y-101938056D01*
X154490473Y-102103444D01*
X154431458Y-102285072D01*
X154430768Y-102291633D01*
X154430768Y-102291635D01*
X154426791Y-102329476D01*
X154411496Y-102475000D01*
X154412186Y-102481565D01*
X154427901Y-102631081D01*
X154431458Y-102664928D01*
X154490473Y-102846556D01*
X154493776Y-102852278D01*
X154493777Y-102852279D01*
X154510566Y-102881358D01*
X154585960Y-103011944D01*
X154590378Y-103016851D01*
X154590379Y-103016852D01*
X154688203Y-103125497D01*
X154713747Y-103153866D01*
X154719088Y-103157746D01*
X154719093Y-103157751D01*
X154727669Y-103163981D01*
X154771024Y-103220202D01*
X154777101Y-103290938D01*
X154743970Y-103353731D01*
X154727671Y-103367854D01*
X154699088Y-103388621D01*
X154688747Y-103396134D01*
X154684326Y-103401044D01*
X154684325Y-103401045D01*
X154656495Y-103431954D01*
X154560960Y-103538056D01*
X154557659Y-103543774D01*
X154476603Y-103684167D01*
X154465473Y-103703444D01*
X154406458Y-103885072D01*
X154386496Y-104075000D01*
X154387186Y-104081565D01*
X154401591Y-104218617D01*
X154406458Y-104264928D01*
X154465473Y-104446556D01*
X154560960Y-104611944D01*
X154565378Y-104616851D01*
X154565379Y-104616852D01*
X154679544Y-104743645D01*
X154688747Y-104753866D01*
X154843248Y-104866118D01*
X154849276Y-104868802D01*
X154849278Y-104868803D01*
X154982431Y-104928086D01*
X155017712Y-104943794D01*
X155111113Y-104963647D01*
X155198056Y-104982128D01*
X155198061Y-104982128D01*
X155204513Y-104983500D01*
X155395487Y-104983500D01*
X155401939Y-104982128D01*
X155401944Y-104982128D01*
X155488887Y-104963647D01*
X155582288Y-104943794D01*
X155617569Y-104928086D01*
X155750722Y-104868803D01*
X155750724Y-104868802D01*
X155756752Y-104866118D01*
X155810858Y-104826808D01*
X155871754Y-104782564D01*
X155938622Y-104758705D01*
X155945815Y-104758500D01*
X168211955Y-104758500D01*
X168220524Y-104758792D01*
X168268458Y-104762060D01*
X168268462Y-104762060D01*
X168276034Y-104762576D01*
X168283511Y-104761271D01*
X168283514Y-104761271D01*
X168336647Y-104751998D01*
X168343171Y-104751035D01*
X168396691Y-104744558D01*
X168404235Y-104743645D01*
X168411345Y-104740958D01*
X168416248Y-104739754D01*
X168426734Y-104736886D01*
X168431526Y-104735439D01*
X168439004Y-104734134D01*
X168445957Y-104731082D01*
X168495341Y-104709405D01*
X168501446Y-104706914D01*
X168551882Y-104687855D01*
X168551885Y-104687853D01*
X168558989Y-104685169D01*
X168565246Y-104680869D01*
X168569714Y-104678533D01*
X168579160Y-104673275D01*
X168583526Y-104670693D01*
X168590485Y-104667638D01*
X168639304Y-104630177D01*
X168644623Y-104626314D01*
X168689065Y-104595769D01*
X168695326Y-104591466D01*
X168735233Y-104546676D01*
X168740213Y-104541402D01*
X169401146Y-103880469D01*
X184487095Y-103880469D01*
X184487392Y-103885622D01*
X184487392Y-103885625D01*
X184494161Y-104003023D01*
X184500427Y-104111697D01*
X184501564Y-104116743D01*
X184501565Y-104116749D01*
X184533480Y-104258365D01*
X184551346Y-104337642D01*
X184553288Y-104342424D01*
X184553289Y-104342428D01*
X184593019Y-104440271D01*
X184638484Y-104552237D01*
X184715878Y-104678533D01*
X184749951Y-104734134D01*
X184759501Y-104749719D01*
X184911147Y-104924784D01*
X185089349Y-105072730D01*
X185289322Y-105189584D01*
X185294147Y-105191426D01*
X185294148Y-105191427D01*
X185368665Y-105219883D01*
X185505694Y-105272209D01*
X185510760Y-105273240D01*
X185510761Y-105273240D01*
X185555219Y-105282285D01*
X185732656Y-105318385D01*
X185863324Y-105323176D01*
X185958949Y-105326683D01*
X185958953Y-105326683D01*
X185964113Y-105326872D01*
X185969233Y-105326216D01*
X185969235Y-105326216D01*
X186042270Y-105316860D01*
X186193847Y-105297442D01*
X186198795Y-105295957D01*
X186198802Y-105295956D01*
X186410747Y-105232369D01*
X186415690Y-105230886D01*
X186496236Y-105191427D01*
X186619049Y-105131262D01*
X186619052Y-105131260D01*
X186623684Y-105128991D01*
X186812243Y-104994494D01*
X186976303Y-104831005D01*
X187111458Y-104642917D01*
X187118743Y-104628178D01*
X187211784Y-104439922D01*
X187211785Y-104439920D01*
X187214078Y-104435280D01*
X187281408Y-104213671D01*
X187311640Y-103984041D01*
X187313327Y-103915000D01*
X187295934Y-103703444D01*
X187294773Y-103689318D01*
X187294772Y-103689312D01*
X187294349Y-103684167D01*
X187237925Y-103459533D01*
X187235767Y-103454570D01*
X187147630Y-103251868D01*
X187147628Y-103251865D01*
X187145570Y-103247131D01*
X187019764Y-103052665D01*
X187016282Y-103048838D01*
X186929848Y-102953848D01*
X186898796Y-102890002D01*
X186907192Y-102819504D01*
X186952369Y-102764736D01*
X186978812Y-102751067D01*
X187038297Y-102728767D01*
X187046705Y-102725615D01*
X187163261Y-102638261D01*
X187250615Y-102521705D01*
X187301745Y-102385316D01*
X187308500Y-102323134D01*
X187308500Y-100426866D01*
X187301745Y-100364684D01*
X187250615Y-100228295D01*
X187163261Y-100111739D01*
X187046705Y-100024385D01*
X186910316Y-99973255D01*
X186848134Y-99966500D01*
X184951866Y-99966500D01*
X184889684Y-99973255D01*
X184753295Y-100024385D01*
X184636739Y-100111739D01*
X184549385Y-100228295D01*
X184498255Y-100364684D01*
X184491500Y-100426866D01*
X184491500Y-102323134D01*
X184498255Y-102385316D01*
X184549385Y-102521705D01*
X184636739Y-102638261D01*
X184753295Y-102725615D01*
X184761704Y-102728767D01*
X184761705Y-102728768D01*
X184821164Y-102751058D01*
X184877929Y-102793699D01*
X184902629Y-102860261D01*
X184887422Y-102929609D01*
X184868029Y-102956091D01*
X184814655Y-103011944D01*
X184801639Y-103025564D01*
X184798725Y-103029836D01*
X184798724Y-103029837D01*
X184783152Y-103052665D01*
X184671119Y-103216899D01*
X184573602Y-103426981D01*
X184511707Y-103650169D01*
X184487095Y-103880469D01*
X169401146Y-103880469D01*
X176366211Y-96915404D01*
X176428523Y-96881378D01*
X176455306Y-96878499D01*
X176464988Y-96878499D01*
X176501466Y-96875629D01*
X176598270Y-96847505D01*
X176649983Y-96832481D01*
X176649985Y-96832480D01*
X176657596Y-96830269D01*
X176712996Y-96797506D01*
X176790720Y-96751540D01*
X176797541Y-96747506D01*
X176912506Y-96632541D01*
X176970200Y-96534985D01*
X176991234Y-96499419D01*
X176991234Y-96499418D01*
X176995269Y-96492596D01*
X177012148Y-96434500D01*
X177036406Y-96351000D01*
X177040629Y-96336466D01*
X177043500Y-96299989D01*
X177043499Y-95800012D01*
X177040629Y-95763534D01*
X177005396Y-95642260D01*
X176997481Y-95615017D01*
X176997480Y-95615015D01*
X176995269Y-95607404D01*
X176974486Y-95572262D01*
X176961672Y-95521755D01*
X177680000Y-95521755D01*
X177680193Y-95526681D01*
X177685655Y-95596081D01*
X177687602Y-95607413D01*
X177732767Y-95775970D01*
X177737471Y-95788223D01*
X177816318Y-95942968D01*
X177823470Y-95953982D01*
X177932768Y-96088955D01*
X177942045Y-96098232D01*
X178077018Y-96207530D01*
X178088032Y-96214682D01*
X178242777Y-96293529D01*
X178255030Y-96298233D01*
X178423587Y-96343398D01*
X178434919Y-96345345D01*
X178504319Y-96350807D01*
X178509245Y-96351000D01*
X178677885Y-96351000D01*
X178693124Y-96346525D01*
X178694329Y-96345135D01*
X178696000Y-96337452D01*
X178696000Y-96332885D01*
X179204000Y-96332885D01*
X179208475Y-96348124D01*
X179209865Y-96349329D01*
X179217548Y-96351000D01*
X179390755Y-96351000D01*
X179395681Y-96350807D01*
X179465081Y-96345345D01*
X179476413Y-96343398D01*
X179644970Y-96298233D01*
X179657223Y-96293529D01*
X179811968Y-96214682D01*
X179822982Y-96207530D01*
X179957955Y-96098232D01*
X179967232Y-96088955D01*
X180076530Y-95953982D01*
X180083682Y-95942968D01*
X180162529Y-95788223D01*
X180167233Y-95775970D01*
X180212398Y-95607413D01*
X180214345Y-95596081D01*
X180219807Y-95526681D01*
X180220000Y-95521755D01*
X180220000Y-94972115D01*
X180215525Y-94956876D01*
X180214135Y-94955671D01*
X180206452Y-94954000D01*
X179222115Y-94954000D01*
X179206876Y-94958475D01*
X179205671Y-94959865D01*
X179204000Y-94967548D01*
X179204000Y-96332885D01*
X178696000Y-96332885D01*
X178696000Y-94972115D01*
X178691525Y-94956876D01*
X178690135Y-94955671D01*
X178682452Y-94954000D01*
X177698115Y-94954000D01*
X177682876Y-94958475D01*
X177681671Y-94959865D01*
X177680000Y-94967548D01*
X177680000Y-95521755D01*
X176961672Y-95521755D01*
X176957027Y-95503446D01*
X176966975Y-95459533D01*
X176969894Y-95454597D01*
X177015606Y-95297254D01*
X177018500Y-95260484D01*
X177018500Y-94789516D01*
X177016937Y-94769658D01*
X177016111Y-94759156D01*
X177016110Y-94759151D01*
X177015606Y-94752746D01*
X176969894Y-94595403D01*
X176927528Y-94523765D01*
X176890522Y-94461192D01*
X176886488Y-94454371D01*
X176770629Y-94338512D01*
X176763808Y-94334478D01*
X176636420Y-94259141D01*
X176636419Y-94259141D01*
X176629597Y-94255106D01*
X176621986Y-94252895D01*
X176621984Y-94252894D01*
X176571005Y-94238084D01*
X176472254Y-94209394D01*
X176465849Y-94208890D01*
X176465844Y-94208889D01*
X176437940Y-94206693D01*
X176437932Y-94206693D01*
X176435484Y-94206500D01*
X176024516Y-94206500D01*
X176022068Y-94206693D01*
X176022060Y-94206693D01*
X175994156Y-94208889D01*
X175994151Y-94208890D01*
X175987746Y-94209394D01*
X175888995Y-94238084D01*
X175838016Y-94252894D01*
X175838014Y-94252895D01*
X175830403Y-94255106D01*
X175822796Y-94259605D01*
X175813647Y-94265015D01*
X175744830Y-94282474D01*
X175685372Y-94265016D01*
X175676222Y-94259605D01*
X175661784Y-94253357D01*
X175541395Y-94218381D01*
X175527295Y-94218421D01*
X175524000Y-94225691D01*
X175524000Y-94503621D01*
X175506454Y-94567760D01*
X175490106Y-94595403D01*
X175487895Y-94603014D01*
X175487894Y-94603016D01*
X175467497Y-94673224D01*
X175429284Y-94733059D01*
X175364788Y-94762737D01*
X175294485Y-94752834D01*
X175240697Y-94706494D01*
X175220500Y-94638071D01*
X175220500Y-93875742D01*
X175218783Y-93853919D01*
X175214841Y-93803841D01*
X175214388Y-93798085D01*
X175185858Y-93691610D01*
X175187548Y-93620635D01*
X175227342Y-93561839D01*
X175292606Y-93533891D01*
X175307565Y-93533000D01*
X177592952Y-93533000D01*
X177661073Y-93553002D01*
X177707566Y-93606658D01*
X177717670Y-93676932D01*
X177714659Y-93691611D01*
X177687602Y-93792587D01*
X177685655Y-93803919D01*
X177680193Y-93873319D01*
X177680000Y-93878246D01*
X177680000Y-94427885D01*
X177684475Y-94443124D01*
X177685865Y-94444329D01*
X177693548Y-94446000D01*
X180201885Y-94446000D01*
X180217124Y-94441525D01*
X180218329Y-94440135D01*
X180220000Y-94432452D01*
X180220000Y-93878246D01*
X180219807Y-93873319D01*
X180214345Y-93803919D01*
X180212398Y-93792587D01*
X180185341Y-93691611D01*
X180187031Y-93620635D01*
X180226825Y-93561839D01*
X180292089Y-93533891D01*
X180307048Y-93533000D01*
X189091000Y-93533000D01*
X189159121Y-93553002D01*
X189205614Y-93606658D01*
X189217000Y-93659000D01*
X189217000Y-112141000D01*
X189196998Y-112209121D01*
X189143342Y-112255614D01*
X189091000Y-112267000D01*
X180087219Y-112267000D01*
X180019098Y-112246998D01*
X179972605Y-112193342D01*
X179962501Y-112123068D01*
X179989298Y-112061706D01*
X180076530Y-111953982D01*
X180083682Y-111942968D01*
X180162529Y-111788223D01*
X180167233Y-111775970D01*
X180212398Y-111607413D01*
X180214345Y-111596081D01*
X180219807Y-111526681D01*
X180220000Y-111521755D01*
X180220000Y-110972115D01*
X180215525Y-110956876D01*
X180214135Y-110955671D01*
X180206452Y-110954000D01*
X177698115Y-110954000D01*
X177682876Y-110958475D01*
X177681671Y-110959865D01*
X177680000Y-110967548D01*
X177680000Y-111521755D01*
X177680193Y-111526681D01*
X177685655Y-111596081D01*
X177687602Y-111607413D01*
X177732767Y-111775970D01*
X177737471Y-111788223D01*
X177816318Y-111942968D01*
X177823470Y-111953982D01*
X177910702Y-112061706D01*
X177938027Y-112127234D01*
X177925587Y-112197132D01*
X177877332Y-112249209D01*
X177812781Y-112267000D01*
X175087219Y-112267000D01*
X175019098Y-112246998D01*
X174972605Y-112193342D01*
X174962501Y-112123068D01*
X174989298Y-112061706D01*
X175076530Y-111953982D01*
X175083682Y-111942968D01*
X175162529Y-111788223D01*
X175167233Y-111775970D01*
X175212398Y-111607413D01*
X175214345Y-111596081D01*
X175219807Y-111526681D01*
X175220000Y-111521755D01*
X175220000Y-110972115D01*
X175215525Y-110956876D01*
X175214135Y-110955671D01*
X175206452Y-110954000D01*
X172698115Y-110954000D01*
X172682876Y-110958475D01*
X172681671Y-110959865D01*
X172680000Y-110967548D01*
X172680000Y-111521755D01*
X172680193Y-111526681D01*
X172685655Y-111596081D01*
X172687602Y-111607413D01*
X172732767Y-111775970D01*
X172737471Y-111788223D01*
X172816318Y-111942968D01*
X172823470Y-111953982D01*
X172910702Y-112061706D01*
X172938027Y-112127234D01*
X172925587Y-112197132D01*
X172877332Y-112249209D01*
X172812781Y-112267000D01*
X164052707Y-112267000D01*
X163984586Y-112246998D01*
X163938093Y-112193342D01*
X163927989Y-112123068D01*
X163954787Y-112061706D01*
X164001526Y-112003988D01*
X164008682Y-111992968D01*
X164087529Y-111838223D01*
X164092233Y-111825970D01*
X164137398Y-111657413D01*
X164139345Y-111646081D01*
X164144807Y-111576681D01*
X164145000Y-111571755D01*
X164145000Y-111022115D01*
X164140525Y-111006876D01*
X164139135Y-111005671D01*
X164131452Y-111004000D01*
X161623115Y-111004000D01*
X161607876Y-111008475D01*
X161606671Y-111009865D01*
X161605000Y-111017548D01*
X161605000Y-111571755D01*
X161605193Y-111576681D01*
X161610655Y-111646081D01*
X161612602Y-111657413D01*
X161657767Y-111825970D01*
X161662471Y-111838223D01*
X161741318Y-111992968D01*
X161748474Y-112003988D01*
X161795213Y-112061706D01*
X161822539Y-112127233D01*
X161810099Y-112197131D01*
X161761845Y-112249208D01*
X161697293Y-112267000D01*
X159052707Y-112267000D01*
X158984586Y-112246998D01*
X158938093Y-112193342D01*
X158927989Y-112123068D01*
X158954787Y-112061706D01*
X159001526Y-112003988D01*
X159008682Y-111992968D01*
X159087529Y-111838223D01*
X159092233Y-111825970D01*
X159137398Y-111657413D01*
X159139345Y-111646081D01*
X159144807Y-111576681D01*
X159145000Y-111571755D01*
X159145000Y-111022115D01*
X159140525Y-111006876D01*
X159139135Y-111005671D01*
X159131452Y-111004000D01*
X156623115Y-111004000D01*
X156607876Y-111008475D01*
X156606671Y-111009865D01*
X156605000Y-111017548D01*
X156605000Y-111571755D01*
X156605193Y-111576681D01*
X156610655Y-111646081D01*
X156612602Y-111657413D01*
X156657767Y-111825970D01*
X156662471Y-111838223D01*
X156741318Y-111992968D01*
X156748474Y-112003988D01*
X156795213Y-112061706D01*
X156822539Y-112127233D01*
X156810099Y-112197131D01*
X156761845Y-112249208D01*
X156697293Y-112267000D01*
X148187383Y-112267000D01*
X148119262Y-112246998D01*
X148072769Y-112193342D01*
X148062665Y-112123068D01*
X148092159Y-112058488D01*
X148098288Y-112051905D01*
X149619277Y-110530916D01*
X149681589Y-110496890D01*
X149752404Y-110501955D01*
X149802007Y-110535699D01*
X149803747Y-110537631D01*
X149814913Y-110550032D01*
X149969414Y-110662284D01*
X149975442Y-110664968D01*
X149975444Y-110664969D01*
X150137847Y-110737275D01*
X150143878Y-110739960D01*
X150237279Y-110759813D01*
X150324222Y-110778294D01*
X150324227Y-110778294D01*
X150330679Y-110779666D01*
X150521653Y-110779666D01*
X150528105Y-110778294D01*
X150528110Y-110778294D01*
X150615053Y-110759813D01*
X150708454Y-110739960D01*
X150714485Y-110737275D01*
X150876888Y-110664969D01*
X150876890Y-110664968D01*
X150882918Y-110662284D01*
X151037419Y-110550032D01*
X151085749Y-110496356D01*
X151115730Y-110477885D01*
X156605000Y-110477885D01*
X156609475Y-110493124D01*
X156610865Y-110494329D01*
X156618548Y-110496000D01*
X157602885Y-110496000D01*
X157618124Y-110491525D01*
X157619329Y-110490135D01*
X157621000Y-110482452D01*
X157621000Y-110477885D01*
X158129000Y-110477885D01*
X158133475Y-110493124D01*
X158134865Y-110494329D01*
X158142548Y-110496000D01*
X159126885Y-110496000D01*
X159142124Y-110491525D01*
X159143329Y-110490135D01*
X159145000Y-110482452D01*
X159145000Y-110477885D01*
X161605000Y-110477885D01*
X161609475Y-110493124D01*
X161610865Y-110494329D01*
X161618548Y-110496000D01*
X162602885Y-110496000D01*
X162618124Y-110491525D01*
X162619329Y-110490135D01*
X162621000Y-110482452D01*
X162621000Y-110477885D01*
X163129000Y-110477885D01*
X163133475Y-110493124D01*
X163134865Y-110494329D01*
X163142548Y-110496000D01*
X164126885Y-110496000D01*
X164142124Y-110491525D01*
X164143329Y-110490135D01*
X164145000Y-110482452D01*
X164145000Y-110427885D01*
X172680000Y-110427885D01*
X172684475Y-110443124D01*
X172685865Y-110444329D01*
X172693548Y-110446000D01*
X173677885Y-110446000D01*
X173693124Y-110441525D01*
X173694329Y-110440135D01*
X173696000Y-110432452D01*
X173696000Y-110427885D01*
X174204000Y-110427885D01*
X174208475Y-110443124D01*
X174209865Y-110444329D01*
X174217548Y-110446000D01*
X175201885Y-110446000D01*
X175217124Y-110441525D01*
X175218329Y-110440135D01*
X175220000Y-110432452D01*
X175220000Y-110427885D01*
X177680000Y-110427885D01*
X177684475Y-110443124D01*
X177685865Y-110444329D01*
X177693548Y-110446000D01*
X178677885Y-110446000D01*
X178693124Y-110441525D01*
X178694329Y-110440135D01*
X178696000Y-110432452D01*
X178696000Y-110427885D01*
X179204000Y-110427885D01*
X179208475Y-110443124D01*
X179209865Y-110444329D01*
X179217548Y-110446000D01*
X180201885Y-110446000D01*
X180217124Y-110441525D01*
X180218329Y-110440135D01*
X180220000Y-110432452D01*
X180220000Y-109878246D01*
X180219807Y-109873319D01*
X180214345Y-109803919D01*
X180212398Y-109792587D01*
X180167233Y-109624030D01*
X180162529Y-109611777D01*
X180083682Y-109457032D01*
X180076530Y-109446018D01*
X179967232Y-109311045D01*
X179957955Y-109301768D01*
X179822982Y-109192470D01*
X179811968Y-109185318D01*
X179657223Y-109106471D01*
X179644970Y-109101767D01*
X179476413Y-109056602D01*
X179465081Y-109054655D01*
X179395681Y-109049193D01*
X179390754Y-109049000D01*
X179222115Y-109049000D01*
X179206876Y-109053475D01*
X179205671Y-109054865D01*
X179204000Y-109062548D01*
X179204000Y-110427885D01*
X178696000Y-110427885D01*
X178696000Y-109067115D01*
X178691525Y-109051876D01*
X178690135Y-109050671D01*
X178682452Y-109049000D01*
X178509246Y-109049000D01*
X178504319Y-109049193D01*
X178434919Y-109054655D01*
X178423587Y-109056602D01*
X178255030Y-109101767D01*
X178242777Y-109106471D01*
X178088032Y-109185318D01*
X178077018Y-109192470D01*
X177942045Y-109301768D01*
X177932768Y-109311045D01*
X177823470Y-109446018D01*
X177816318Y-109457032D01*
X177737471Y-109611777D01*
X177732767Y-109624030D01*
X177687602Y-109792587D01*
X177685655Y-109803919D01*
X177680193Y-109873319D01*
X177680000Y-109878246D01*
X177680000Y-110427885D01*
X175220000Y-110427885D01*
X175220000Y-109878246D01*
X175219807Y-109873319D01*
X175214345Y-109803919D01*
X175212398Y-109792587D01*
X175167233Y-109624030D01*
X175162529Y-109611777D01*
X175083682Y-109457032D01*
X175076530Y-109446018D01*
X174967232Y-109311045D01*
X174957955Y-109301768D01*
X174822982Y-109192470D01*
X174811968Y-109185318D01*
X174657223Y-109106471D01*
X174644970Y-109101767D01*
X174476413Y-109056602D01*
X174465081Y-109054655D01*
X174395681Y-109049193D01*
X174390754Y-109049000D01*
X174222115Y-109049000D01*
X174206876Y-109053475D01*
X174205671Y-109054865D01*
X174204000Y-109062548D01*
X174204000Y-110427885D01*
X173696000Y-110427885D01*
X173696000Y-109067115D01*
X173691525Y-109051876D01*
X173690135Y-109050671D01*
X173682452Y-109049000D01*
X173509246Y-109049000D01*
X173504319Y-109049193D01*
X173434919Y-109054655D01*
X173423587Y-109056602D01*
X173255030Y-109101767D01*
X173242777Y-109106471D01*
X173088032Y-109185318D01*
X173077018Y-109192470D01*
X172942045Y-109301768D01*
X172932768Y-109311045D01*
X172823470Y-109446018D01*
X172816318Y-109457032D01*
X172737471Y-109611777D01*
X172732767Y-109624030D01*
X172687602Y-109792587D01*
X172685655Y-109803919D01*
X172680193Y-109873319D01*
X172680000Y-109878246D01*
X172680000Y-110427885D01*
X164145000Y-110427885D01*
X164145000Y-109928246D01*
X164144807Y-109923319D01*
X164139345Y-109853919D01*
X164137398Y-109842587D01*
X164092233Y-109674030D01*
X164087529Y-109661777D01*
X164008682Y-109507032D01*
X164001530Y-109496018D01*
X163892232Y-109361045D01*
X163882955Y-109351768D01*
X163747982Y-109242470D01*
X163736968Y-109235318D01*
X163582223Y-109156471D01*
X163569970Y-109151767D01*
X163401413Y-109106602D01*
X163390081Y-109104655D01*
X163320681Y-109099193D01*
X163315754Y-109099000D01*
X163147115Y-109099000D01*
X163131876Y-109103475D01*
X163130671Y-109104865D01*
X163129000Y-109112548D01*
X163129000Y-110477885D01*
X162621000Y-110477885D01*
X162621000Y-109117115D01*
X162616525Y-109101876D01*
X162615135Y-109100671D01*
X162607452Y-109099000D01*
X162434246Y-109099000D01*
X162429319Y-109099193D01*
X162359919Y-109104655D01*
X162348587Y-109106602D01*
X162180030Y-109151767D01*
X162167777Y-109156471D01*
X162013032Y-109235318D01*
X162002018Y-109242470D01*
X161867045Y-109351768D01*
X161857768Y-109361045D01*
X161748470Y-109496018D01*
X161741318Y-109507032D01*
X161662471Y-109661777D01*
X161657767Y-109674030D01*
X161612602Y-109842587D01*
X161610655Y-109853919D01*
X161605193Y-109923319D01*
X161605000Y-109928246D01*
X161605000Y-110477885D01*
X159145000Y-110477885D01*
X159145000Y-109928246D01*
X159144807Y-109923319D01*
X159139345Y-109853919D01*
X159137398Y-109842587D01*
X159092233Y-109674030D01*
X159087529Y-109661777D01*
X159008682Y-109507032D01*
X159001530Y-109496018D01*
X158892232Y-109361045D01*
X158882955Y-109351768D01*
X158747982Y-109242470D01*
X158736968Y-109235318D01*
X158582223Y-109156471D01*
X158569970Y-109151767D01*
X158401413Y-109106602D01*
X158390081Y-109104655D01*
X158320681Y-109099193D01*
X158315754Y-109099000D01*
X158147115Y-109099000D01*
X158131876Y-109103475D01*
X158130671Y-109104865D01*
X158129000Y-109112548D01*
X158129000Y-110477885D01*
X157621000Y-110477885D01*
X157621000Y-109117115D01*
X157616525Y-109101876D01*
X157615135Y-109100671D01*
X157607452Y-109099000D01*
X157434246Y-109099000D01*
X157429319Y-109099193D01*
X157359919Y-109104655D01*
X157348587Y-109106602D01*
X157180030Y-109151767D01*
X157167777Y-109156471D01*
X157013032Y-109235318D01*
X157002018Y-109242470D01*
X156867045Y-109351768D01*
X156857768Y-109361045D01*
X156748470Y-109496018D01*
X156741318Y-109507032D01*
X156662471Y-109661777D01*
X156657767Y-109674030D01*
X156612602Y-109842587D01*
X156610655Y-109853919D01*
X156605193Y-109923319D01*
X156605000Y-109928246D01*
X156605000Y-110477885D01*
X151115730Y-110477885D01*
X151146195Y-110459116D01*
X151179385Y-110454666D01*
X152307331Y-110454666D01*
X152323778Y-110455744D01*
X152353834Y-110459701D01*
X152362022Y-110458623D01*
X152392078Y-110454666D01*
X152431318Y-110449500D01*
X152506158Y-110439647D01*
X152648101Y-110380852D01*
X152675882Y-110359535D01*
X152742101Y-110333937D01*
X152752583Y-110333500D01*
X152895487Y-110333500D01*
X152901939Y-110332128D01*
X152901944Y-110332128D01*
X152988887Y-110313647D01*
X153082288Y-110293794D01*
X153088319Y-110291109D01*
X153250722Y-110218803D01*
X153250724Y-110218802D01*
X153256752Y-110216118D01*
X153272234Y-110204870D01*
X153401706Y-110110802D01*
X153411253Y-110103866D01*
X153488915Y-110017614D01*
X153534621Y-109966852D01*
X153534622Y-109966851D01*
X153539040Y-109961944D01*
X153634527Y-109796556D01*
X153693542Y-109614928D01*
X153703885Y-109516525D01*
X153712814Y-109431565D01*
X153713504Y-109425000D01*
X153693542Y-109235072D01*
X153634527Y-109053444D01*
X153539040Y-108888056D01*
X153506907Y-108852368D01*
X153415675Y-108751045D01*
X153415674Y-108751044D01*
X153411253Y-108746134D01*
X153256752Y-108633882D01*
X153250724Y-108631198D01*
X153250722Y-108631197D01*
X153088319Y-108558891D01*
X153088318Y-108558891D01*
X153082288Y-108556206D01*
X152988888Y-108536353D01*
X152901944Y-108517872D01*
X152901939Y-108517872D01*
X152895487Y-108516500D01*
X152704513Y-108516500D01*
X152698061Y-108517872D01*
X152698056Y-108517872D01*
X152611112Y-108536353D01*
X152517712Y-108556206D01*
X152511682Y-108558891D01*
X152511681Y-108558891D01*
X152349278Y-108631197D01*
X152349276Y-108631198D01*
X152343248Y-108633882D01*
X152337905Y-108637764D01*
X152299858Y-108665407D01*
X152232990Y-108689266D01*
X152163839Y-108673187D01*
X152114358Y-108622273D01*
X152100486Y-108550302D01*
X152112679Y-108434289D01*
X152113369Y-108427724D01*
X152093407Y-108237796D01*
X152034392Y-108056168D01*
X151938905Y-107890780D01*
X151811118Y-107748858D01*
X151656617Y-107636606D01*
X151650589Y-107633922D01*
X151650587Y-107633921D01*
X151488184Y-107561615D01*
X151488183Y-107561615D01*
X151482153Y-107558930D01*
X151375561Y-107536273D01*
X151301809Y-107520596D01*
X151301804Y-107520596D01*
X151295352Y-107519224D01*
X151104378Y-107519224D01*
X151097926Y-107520596D01*
X151097921Y-107520596D01*
X151024169Y-107536273D01*
X150917577Y-107558930D01*
X150911547Y-107561615D01*
X150911546Y-107561615D01*
X150749143Y-107633921D01*
X150749141Y-107633922D01*
X150743113Y-107636606D01*
X150588612Y-107748858D01*
X150460825Y-107890780D01*
X150365338Y-108056168D01*
X150363296Y-108062453D01*
X150336999Y-108143387D01*
X150306261Y-108193546D01*
X147910095Y-110589712D01*
X147847783Y-110623738D01*
X147776968Y-110618673D01*
X147720132Y-110576126D01*
X147695321Y-110509606D01*
X147695000Y-110500617D01*
X147695000Y-109928246D01*
X147694807Y-109923319D01*
X147689345Y-109853919D01*
X147687398Y-109842587D01*
X147642233Y-109674030D01*
X147637529Y-109661777D01*
X147558682Y-109507032D01*
X147551530Y-109496018D01*
X147442232Y-109361045D01*
X147432955Y-109351768D01*
X147297982Y-109242470D01*
X147286968Y-109235318D01*
X147132223Y-109156471D01*
X147119970Y-109151767D01*
X146951413Y-109106602D01*
X146940081Y-109104655D01*
X146870681Y-109099193D01*
X146865754Y-109099000D01*
X146697115Y-109099000D01*
X146681876Y-109103475D01*
X146680671Y-109104865D01*
X146679000Y-109112548D01*
X146679000Y-110878000D01*
X146658998Y-110946121D01*
X146605342Y-110992614D01*
X146553000Y-111004000D01*
X145173115Y-111004000D01*
X145157876Y-111008475D01*
X145156671Y-111009865D01*
X145155000Y-111017548D01*
X145155000Y-111515500D01*
X145134998Y-111583621D01*
X145081342Y-111630114D01*
X145029000Y-111641500D01*
X142821000Y-111641500D01*
X142752879Y-111621498D01*
X142706386Y-111567842D01*
X142695000Y-111515500D01*
X142695000Y-111022115D01*
X142690525Y-111006876D01*
X142689135Y-111005671D01*
X142681452Y-111004000D01*
X140173115Y-111004000D01*
X140157876Y-111008475D01*
X140156671Y-111009865D01*
X140155000Y-111017548D01*
X140155000Y-111515500D01*
X140134998Y-111583621D01*
X140081342Y-111630114D01*
X140029000Y-111641500D01*
X137012069Y-111641500D01*
X136943948Y-111621498D01*
X136897455Y-111567842D01*
X136887351Y-111497568D01*
X136896961Y-111464254D01*
X136897727Y-111462535D01*
X136900769Y-111457179D01*
X136902712Y-111451337D01*
X136902715Y-111451331D01*
X136961250Y-111275365D01*
X136963197Y-111269513D01*
X136987985Y-111073295D01*
X136988380Y-111045000D01*
X136969080Y-110848167D01*
X136911916Y-110658831D01*
X136909024Y-110653391D01*
X136907195Y-110648954D01*
X136899731Y-110578350D01*
X136917512Y-110537631D01*
X136915921Y-110536760D01*
X136920229Y-110528891D01*
X136925615Y-110521705D01*
X136942042Y-110477885D01*
X140155000Y-110477885D01*
X140159475Y-110493124D01*
X140160865Y-110494329D01*
X140168548Y-110496000D01*
X141152885Y-110496000D01*
X141168124Y-110491525D01*
X141169329Y-110490135D01*
X141171000Y-110482452D01*
X141171000Y-110477885D01*
X141679000Y-110477885D01*
X141683475Y-110493124D01*
X141684865Y-110494329D01*
X141692548Y-110496000D01*
X142676885Y-110496000D01*
X142692124Y-110491525D01*
X142693329Y-110490135D01*
X142695000Y-110482452D01*
X142695000Y-110477885D01*
X145155000Y-110477885D01*
X145159475Y-110493124D01*
X145160865Y-110494329D01*
X145168548Y-110496000D01*
X146152885Y-110496000D01*
X146168124Y-110491525D01*
X146169329Y-110490135D01*
X146171000Y-110482452D01*
X146171000Y-109117115D01*
X146166525Y-109101876D01*
X146165135Y-109100671D01*
X146157452Y-109099000D01*
X145984246Y-109099000D01*
X145979319Y-109099193D01*
X145909919Y-109104655D01*
X145898587Y-109106602D01*
X145730030Y-109151767D01*
X145717777Y-109156471D01*
X145563032Y-109235318D01*
X145552018Y-109242470D01*
X145417045Y-109351768D01*
X145407768Y-109361045D01*
X145298470Y-109496018D01*
X145291318Y-109507032D01*
X145212471Y-109661777D01*
X145207767Y-109674030D01*
X145162602Y-109842587D01*
X145160655Y-109853919D01*
X145155193Y-109923319D01*
X145155000Y-109928246D01*
X145155000Y-110477885D01*
X142695000Y-110477885D01*
X142695000Y-109928246D01*
X142694807Y-109923319D01*
X142689345Y-109853919D01*
X142687398Y-109842587D01*
X142642233Y-109674030D01*
X142637529Y-109661777D01*
X142558682Y-109507032D01*
X142551530Y-109496018D01*
X142442232Y-109361045D01*
X142432955Y-109351768D01*
X142297982Y-109242470D01*
X142286968Y-109235318D01*
X142132223Y-109156471D01*
X142119970Y-109151767D01*
X141951413Y-109106602D01*
X141940081Y-109104655D01*
X141870681Y-109099193D01*
X141865754Y-109099000D01*
X141697115Y-109099000D01*
X141681876Y-109103475D01*
X141680671Y-109104865D01*
X141679000Y-109112548D01*
X141679000Y-110477885D01*
X141171000Y-110477885D01*
X141171000Y-109117115D01*
X141166525Y-109101876D01*
X141165135Y-109100671D01*
X141157452Y-109099000D01*
X140984246Y-109099000D01*
X140979319Y-109099193D01*
X140909919Y-109104655D01*
X140898587Y-109106602D01*
X140730030Y-109151767D01*
X140717777Y-109156471D01*
X140563032Y-109235318D01*
X140552018Y-109242470D01*
X140417045Y-109351768D01*
X140407768Y-109361045D01*
X140298470Y-109496018D01*
X140291318Y-109507032D01*
X140212471Y-109661777D01*
X140207767Y-109674030D01*
X140162602Y-109842587D01*
X140160655Y-109853919D01*
X140155193Y-109923319D01*
X140155000Y-109928246D01*
X140155000Y-110477885D01*
X136942042Y-110477885D01*
X136976745Y-110385316D01*
X136983500Y-110323134D01*
X136983500Y-109226866D01*
X136976745Y-109164684D01*
X136925615Y-109028295D01*
X136838261Y-108911739D01*
X136721705Y-108824385D01*
X136721049Y-108824139D01*
X136673843Y-108776825D01*
X136658500Y-108716567D01*
X136658500Y-105673056D01*
X136658792Y-105664486D01*
X136658863Y-105663443D01*
X136662577Y-105608966D01*
X136651997Y-105548342D01*
X136651034Y-105541819D01*
X136644558Y-105488308D01*
X136644558Y-105488307D01*
X136643645Y-105480765D01*
X136640959Y-105473655D01*
X136639754Y-105468752D01*
X136636886Y-105458266D01*
X136635439Y-105453474D01*
X136634134Y-105445996D01*
X136631082Y-105439043D01*
X136609405Y-105389659D01*
X136606914Y-105383554D01*
X136587855Y-105333118D01*
X136587853Y-105333115D01*
X136585169Y-105326011D01*
X136580869Y-105319754D01*
X136578533Y-105315286D01*
X136573275Y-105305840D01*
X136570693Y-105301474D01*
X136567638Y-105294515D01*
X136530177Y-105245696D01*
X136526314Y-105240377D01*
X136495769Y-105195935D01*
X136491466Y-105189674D01*
X136446676Y-105149767D01*
X136441402Y-105144787D01*
X132866780Y-101570165D01*
X132832754Y-101507853D01*
X132832723Y-101458116D01*
X132832370Y-101458069D01*
X132832722Y-101455398D01*
X132832722Y-101455395D01*
X132861529Y-101236590D01*
X132863156Y-101170000D01*
X132844852Y-100947361D01*
X132836616Y-100914570D01*
X132831017Y-100892278D01*
X132833822Y-100821337D01*
X132864126Y-100772489D01*
X134463459Y-99173156D01*
X134469724Y-99167302D01*
X134505945Y-99135704D01*
X134511670Y-99130710D01*
X134547066Y-99080345D01*
X134550980Y-99075077D01*
X134584248Y-99032649D01*
X134588935Y-99026672D01*
X134592061Y-99019748D01*
X134594671Y-99015439D01*
X134600042Y-99006024D01*
X134602427Y-99001576D01*
X134606795Y-98995361D01*
X134629144Y-98938039D01*
X134631698Y-98931962D01*
X134653887Y-98882820D01*
X134657014Y-98875895D01*
X134658400Y-98868418D01*
X134659910Y-98863598D01*
X134662878Y-98853182D01*
X134664131Y-98848302D01*
X134666889Y-98841228D01*
X134667881Y-98833695D01*
X134674921Y-98780223D01*
X134675953Y-98773710D01*
X134685777Y-98720701D01*
X134685777Y-98720699D01*
X134687161Y-98713232D01*
X134686120Y-98695166D01*
X134683709Y-98653357D01*
X134683500Y-98646105D01*
X134683500Y-96434500D01*
X134703502Y-96366379D01*
X134757158Y-96319886D01*
X134809500Y-96308500D01*
X134898134Y-96308500D01*
X134960316Y-96301745D01*
X135096705Y-96250615D01*
X135213261Y-96163261D01*
X135300615Y-96046705D01*
X135351745Y-95910316D01*
X135358500Y-95848134D01*
X135358500Y-94051866D01*
X135351745Y-93989684D01*
X135300615Y-93853295D01*
X135213261Y-93736739D01*
X135215642Y-93734954D01*
X135188792Y-93685783D01*
X135193857Y-93614968D01*
X135236404Y-93558132D01*
X135302924Y-93533321D01*
X135311913Y-93533000D01*
X140080832Y-93533000D01*
X140148953Y-93553002D01*
G37*
%TD.AperFunction*%
%TA.AperFunction,Conductor*%
G36*
X133074590Y-103711205D02*
G01*
X135254595Y-105891210D01*
X135288621Y-105953522D01*
X135291500Y-105980305D01*
X135291500Y-108716567D01*
X135271498Y-108784688D01*
X135229322Y-108824000D01*
X135228295Y-108824385D01*
X135221114Y-108829767D01*
X135213242Y-108834077D01*
X135212108Y-108832005D01*
X135157606Y-108852368D01*
X135099723Y-108842850D01*
X135091620Y-108839444D01*
X134976308Y-108803750D01*
X134962205Y-108803544D01*
X134959000Y-108810299D01*
X134959000Y-109903000D01*
X134938998Y-109971121D01*
X134885342Y-110017614D01*
X134833000Y-110029000D01*
X133307000Y-110029000D01*
X133238879Y-110008998D01*
X133192386Y-109955342D01*
X133181000Y-109903000D01*
X133181000Y-109502885D01*
X133689000Y-109502885D01*
X133693475Y-109518124D01*
X133694865Y-109519329D01*
X133702548Y-109521000D01*
X134432885Y-109521000D01*
X134448124Y-109516525D01*
X134449329Y-109515135D01*
X134451000Y-109507452D01*
X134451000Y-108817076D01*
X134447027Y-108803545D01*
X134439232Y-108802425D01*
X134331479Y-108834138D01*
X134320111Y-108838731D01*
X134155846Y-108924607D01*
X134140426Y-108934697D01*
X134139095Y-108932663D01*
X134083357Y-108955653D01*
X134013508Y-108942943D01*
X133999617Y-108934814D01*
X133995971Y-108932355D01*
X133832924Y-108844196D01*
X133821619Y-108839444D01*
X133706308Y-108803750D01*
X133692205Y-108803544D01*
X133689000Y-108810299D01*
X133689000Y-109502885D01*
X133181000Y-109502885D01*
X133181000Y-108817076D01*
X133177027Y-108803545D01*
X133169232Y-108802425D01*
X133061479Y-108834138D01*
X133050111Y-108838731D01*
X132885846Y-108924607D01*
X132870426Y-108934697D01*
X132869003Y-108932522D01*
X132813864Y-108955314D01*
X132744005Y-108942657D01*
X132734055Y-108936839D01*
X132731675Y-108934870D01*
X132557701Y-108840802D01*
X132368768Y-108782318D01*
X132362643Y-108781674D01*
X132362642Y-108781674D01*
X132178204Y-108762289D01*
X132178202Y-108762289D01*
X132172075Y-108761645D01*
X132089576Y-108769153D01*
X131981251Y-108779011D01*
X131981248Y-108779012D01*
X131975112Y-108779570D01*
X131969206Y-108781308D01*
X131969202Y-108781309D01*
X131892954Y-108803750D01*
X131785381Y-108835410D01*
X131779923Y-108838263D01*
X131779919Y-108838265D01*
X131694067Y-108883148D01*
X131610110Y-108927040D01*
X131605310Y-108930900D01*
X131600153Y-108934274D01*
X131598849Y-108932281D01*
X131542977Y-108955354D01*
X131473122Y-108942674D01*
X131459186Y-108934522D01*
X131455980Y-108932360D01*
X131292924Y-108844196D01*
X131281619Y-108839444D01*
X131166308Y-108803750D01*
X131152205Y-108803544D01*
X131149000Y-108810299D01*
X131149000Y-109903000D01*
X131128998Y-109971121D01*
X131075342Y-110017614D01*
X131023000Y-110029000D01*
X130767000Y-110029000D01*
X130698879Y-110008998D01*
X130652386Y-109955342D01*
X130641000Y-109903000D01*
X130641000Y-108817076D01*
X130637027Y-108803545D01*
X130629232Y-108802425D01*
X130521479Y-108834138D01*
X130510111Y-108838731D01*
X130345846Y-108924607D01*
X130335585Y-108931321D01*
X130262952Y-108989719D01*
X130197329Y-109016815D01*
X130127475Y-109004131D01*
X130075567Y-108955695D01*
X130058000Y-108891522D01*
X130058000Y-107536273D01*
X130078002Y-107468152D01*
X130131658Y-107421659D01*
X130201932Y-107411555D01*
X130266512Y-107441049D01*
X130274796Y-107449943D01*
X130275008Y-107449731D01*
X130281358Y-107456081D01*
X130286739Y-107463261D01*
X130403295Y-107550615D01*
X130539684Y-107601745D01*
X130601866Y-107608500D01*
X132398134Y-107608500D01*
X132460316Y-107601745D01*
X132596705Y-107550615D01*
X132713261Y-107463261D01*
X132800615Y-107346705D01*
X132851745Y-107210316D01*
X132858500Y-107148134D01*
X132858500Y-105351866D01*
X132851745Y-105289684D01*
X132800615Y-105153295D01*
X132713261Y-105036739D01*
X132596705Y-104949385D01*
X132574629Y-104941109D01*
X132478203Y-104904960D01*
X132421439Y-104862318D01*
X132396739Y-104795756D01*
X132411947Y-104726408D01*
X132433493Y-104697727D01*
X132463687Y-104667638D01*
X132538096Y-104593489D01*
X132567739Y-104552237D01*
X132665435Y-104416277D01*
X132668453Y-104412077D01*
X132702876Y-104342428D01*
X132765136Y-104216453D01*
X132765137Y-104216451D01*
X132767430Y-104211811D01*
X132807002Y-104081565D01*
X132830865Y-104003023D01*
X132830865Y-104003021D01*
X132832370Y-103998069D01*
X132860573Y-103783853D01*
X132889296Y-103718926D01*
X132948561Y-103679835D01*
X133019553Y-103678990D01*
X133074590Y-103711205D01*
G37*
%TD.AperFunction*%
%TA.AperFunction,Conductor*%
G36*
X161599470Y-93553002D02*
G01*
X161645963Y-93606658D01*
X161656067Y-93676932D01*
X161653056Y-93691611D01*
X161612602Y-93842587D01*
X161610655Y-93853919D01*
X161605193Y-93923319D01*
X161605000Y-93928246D01*
X161605000Y-94477885D01*
X161609475Y-94493124D01*
X161610865Y-94494329D01*
X161618548Y-94496000D01*
X164126885Y-94496000D01*
X164142124Y-94491525D01*
X164143329Y-94490135D01*
X164145000Y-94482452D01*
X164145000Y-93928246D01*
X164144807Y-93923319D01*
X164139345Y-93853919D01*
X164137398Y-93842587D01*
X164096944Y-93691611D01*
X164098634Y-93620635D01*
X164138428Y-93561839D01*
X164203693Y-93533891D01*
X164218651Y-93533000D01*
X172592435Y-93533000D01*
X172660556Y-93553002D01*
X172707049Y-93606658D01*
X172717153Y-93676932D01*
X172714144Y-93691601D01*
X172685612Y-93798085D01*
X172685159Y-93803841D01*
X172681218Y-93853919D01*
X172679500Y-93875742D01*
X172679500Y-95524258D01*
X172679693Y-95526706D01*
X172679693Y-95526714D01*
X172683755Y-95578322D01*
X172685612Y-95601915D01*
X172687105Y-95607488D01*
X172687106Y-95607492D01*
X172700504Y-95657492D01*
X172734006Y-95782524D01*
X172818893Y-95949125D01*
X172823046Y-95954254D01*
X172823047Y-95954255D01*
X172915829Y-96068831D01*
X172936564Y-96094436D01*
X172941690Y-96098587D01*
X173043127Y-96180729D01*
X173081875Y-96212107D01*
X173248476Y-96296994D01*
X173254849Y-96298702D01*
X173254850Y-96298702D01*
X173423508Y-96343894D01*
X173423512Y-96343895D01*
X173429085Y-96345388D01*
X173434841Y-96345841D01*
X173504286Y-96351307D01*
X173504294Y-96351307D01*
X173506742Y-96351500D01*
X174379135Y-96351500D01*
X174447256Y-96371502D01*
X174493749Y-96425158D01*
X174500132Y-96442345D01*
X174514731Y-96492596D01*
X174518766Y-96499419D01*
X174518769Y-96499425D01*
X174591724Y-96622785D01*
X174609184Y-96691601D01*
X174586667Y-96758932D01*
X174572366Y-96776019D01*
X167993790Y-103354595D01*
X167931478Y-103388621D01*
X167904695Y-103391500D01*
X155996966Y-103391500D01*
X155928845Y-103371498D01*
X155882352Y-103317842D01*
X155872248Y-103247568D01*
X155901742Y-103182988D01*
X155922905Y-103163564D01*
X155924153Y-103162657D01*
X155936253Y-103153866D01*
X155961797Y-103125497D01*
X156059621Y-103016852D01*
X156059622Y-103016851D01*
X156064040Y-103011944D01*
X156139434Y-102881358D01*
X156156223Y-102852279D01*
X156156224Y-102852278D01*
X156159527Y-102846556D01*
X156218542Y-102664928D01*
X156227602Y-102578722D01*
X156254615Y-102513066D01*
X156263817Y-102502798D01*
X160653459Y-98113156D01*
X160659724Y-98107302D01*
X160695945Y-98075704D01*
X160701670Y-98070710D01*
X160737066Y-98020345D01*
X160740980Y-98015077D01*
X160760005Y-97990814D01*
X160778935Y-97966672D01*
X160782061Y-97959748D01*
X160784671Y-97955439D01*
X160790042Y-97946024D01*
X160792427Y-97941576D01*
X160796795Y-97935361D01*
X160819144Y-97878039D01*
X160821698Y-97871962D01*
X160839939Y-97831565D01*
X160847014Y-97815895D01*
X160848400Y-97808418D01*
X160849910Y-97803598D01*
X160852878Y-97793182D01*
X160854131Y-97788302D01*
X160856889Y-97781228D01*
X160858536Y-97768717D01*
X160864921Y-97720223D01*
X160865953Y-97713710D01*
X160875777Y-97660701D01*
X160875777Y-97660699D01*
X160877161Y-97653232D01*
X160876493Y-97641635D01*
X160873709Y-97593357D01*
X160873500Y-97586105D01*
X160873500Y-96656147D01*
X160891045Y-96592011D01*
X160920269Y-96542596D01*
X160965629Y-96386466D01*
X160968500Y-96349989D01*
X160968499Y-95850012D01*
X160965629Y-95813534D01*
X160920269Y-95657404D01*
X160905733Y-95632826D01*
X160890238Y-95571755D01*
X161605000Y-95571755D01*
X161605193Y-95576681D01*
X161610655Y-95646081D01*
X161612602Y-95657413D01*
X161657767Y-95825970D01*
X161662471Y-95838223D01*
X161741318Y-95992968D01*
X161748470Y-96003982D01*
X161857768Y-96138955D01*
X161867045Y-96148232D01*
X162002018Y-96257530D01*
X162013032Y-96264682D01*
X162167777Y-96343529D01*
X162180030Y-96348233D01*
X162348587Y-96393398D01*
X162359919Y-96395345D01*
X162429319Y-96400807D01*
X162434245Y-96401000D01*
X162602885Y-96401000D01*
X162618124Y-96396525D01*
X162619329Y-96395135D01*
X162621000Y-96387452D01*
X162621000Y-96382885D01*
X163129000Y-96382885D01*
X163133475Y-96398124D01*
X163134865Y-96399329D01*
X163142548Y-96401000D01*
X163315755Y-96401000D01*
X163320681Y-96400807D01*
X163390081Y-96395345D01*
X163401413Y-96393398D01*
X163569970Y-96348233D01*
X163582223Y-96343529D01*
X163736968Y-96264682D01*
X163747982Y-96257530D01*
X163882955Y-96148232D01*
X163892232Y-96138955D01*
X164001530Y-96003982D01*
X164008682Y-95992968D01*
X164087529Y-95838223D01*
X164092233Y-95825970D01*
X164137398Y-95657413D01*
X164139345Y-95646081D01*
X164144807Y-95576681D01*
X164145000Y-95571755D01*
X164145000Y-95022115D01*
X164140525Y-95006876D01*
X164139135Y-95005671D01*
X164131452Y-95004000D01*
X163147115Y-95004000D01*
X163131876Y-95008475D01*
X163130671Y-95009865D01*
X163129000Y-95017548D01*
X163129000Y-96382885D01*
X162621000Y-96382885D01*
X162621000Y-95022115D01*
X162616525Y-95006876D01*
X162615135Y-95005671D01*
X162607452Y-95004000D01*
X161623115Y-95004000D01*
X161607876Y-95008475D01*
X161606671Y-95009865D01*
X161605000Y-95017548D01*
X161605000Y-95571755D01*
X160890238Y-95571755D01*
X160888274Y-95564012D01*
X160895997Y-95529917D01*
X160894894Y-95529597D01*
X160902157Y-95504597D01*
X160940606Y-95372254D01*
X160942088Y-95353431D01*
X160943307Y-95337940D01*
X160943307Y-95337932D01*
X160943500Y-95335484D01*
X160943500Y-94864516D01*
X160941727Y-94841986D01*
X160941111Y-94834156D01*
X160941110Y-94834151D01*
X160940606Y-94827746D01*
X160907290Y-94713071D01*
X160897106Y-94678016D01*
X160897105Y-94678014D01*
X160894894Y-94670403D01*
X160855042Y-94603016D01*
X160815522Y-94536192D01*
X160811488Y-94529371D01*
X160695629Y-94413512D01*
X160568811Y-94338512D01*
X160561420Y-94334141D01*
X160561419Y-94334141D01*
X160554597Y-94330106D01*
X160546986Y-94327895D01*
X160546984Y-94327894D01*
X160489446Y-94311178D01*
X160397254Y-94284394D01*
X160390849Y-94283890D01*
X160390844Y-94283889D01*
X160362940Y-94281693D01*
X160362932Y-94281693D01*
X160360484Y-94281500D01*
X159949516Y-94281500D01*
X159947068Y-94281693D01*
X159947060Y-94281693D01*
X159919156Y-94283889D01*
X159919151Y-94283890D01*
X159912746Y-94284394D01*
X159820554Y-94311178D01*
X159763016Y-94327894D01*
X159763014Y-94327895D01*
X159755403Y-94330106D01*
X159748576Y-94334143D01*
X159748577Y-94334143D01*
X159738647Y-94340015D01*
X159669830Y-94357474D01*
X159610372Y-94340016D01*
X159601222Y-94334605D01*
X159586784Y-94328357D01*
X159466395Y-94293381D01*
X159452295Y-94293421D01*
X159449000Y-94300691D01*
X159449000Y-94578621D01*
X159431454Y-94642760D01*
X159415106Y-94670403D01*
X159412895Y-94678014D01*
X159412894Y-94678016D01*
X159392497Y-94748224D01*
X159354284Y-94808059D01*
X159289788Y-94837737D01*
X159219485Y-94827834D01*
X159165697Y-94781494D01*
X159145500Y-94713071D01*
X159145500Y-93925742D01*
X159141372Y-93873286D01*
X159139841Y-93853841D01*
X159139388Y-93848085D01*
X159131387Y-93818222D01*
X159097461Y-93691611D01*
X159099151Y-93620635D01*
X159138945Y-93561839D01*
X159204209Y-93533891D01*
X159219168Y-93533000D01*
X161531349Y-93533000D01*
X161599470Y-93553002D01*
G37*
%TD.AperFunction*%
%TA.AperFunction,Conductor*%
G36*
X130266512Y-99227597D02*
G01*
X130291433Y-99256986D01*
X130397694Y-99430388D01*
X130403777Y-99438699D01*
X130543213Y-99599667D01*
X130550580Y-99606883D01*
X130714434Y-99742916D01*
X130722881Y-99748831D01*
X130791969Y-99789203D01*
X130840693Y-99840842D01*
X130853764Y-99910625D01*
X130827033Y-99976396D01*
X130786584Y-100009752D01*
X130773607Y-100016507D01*
X130769474Y-100019610D01*
X130769471Y-100019612D01*
X130599100Y-100147530D01*
X130594965Y-100150635D01*
X130440629Y-100312138D01*
X130437715Y-100316410D01*
X130437714Y-100316411D01*
X130364684Y-100423469D01*
X130314743Y-100496680D01*
X130312565Y-100501373D01*
X130312560Y-100501381D01*
X130298287Y-100532130D01*
X130251463Y-100585497D01*
X130183220Y-100605077D01*
X130115224Y-100584653D01*
X130069065Y-100530711D01*
X130058000Y-100479079D01*
X130058000Y-99322821D01*
X130078002Y-99254700D01*
X130131658Y-99208207D01*
X130201932Y-99198103D01*
X130266512Y-99227597D01*
G37*
%TD.AperFunction*%
%TA.AperFunction,Conductor*%
G36*
X131656121Y-94716002D02*
G01*
X131702614Y-94769658D01*
X131714000Y-94822000D01*
X131714000Y-96268517D01*
X131718064Y-96282359D01*
X131731478Y-96284393D01*
X131738184Y-96283534D01*
X131748262Y-96281392D01*
X131952255Y-96220191D01*
X131961842Y-96216433D01*
X132153095Y-96122739D01*
X132161945Y-96117464D01*
X132335328Y-95993792D01*
X132343193Y-95987145D01*
X132447897Y-95882805D01*
X132510268Y-95848889D01*
X132581075Y-95854077D01*
X132637837Y-95896723D01*
X132654819Y-95927826D01*
X132699385Y-96046705D01*
X132786739Y-96163261D01*
X132903295Y-96250615D01*
X133039684Y-96301745D01*
X133101866Y-96308500D01*
X133190500Y-96308500D01*
X133258621Y-96328502D01*
X133305114Y-96382158D01*
X133316500Y-96434500D01*
X133316500Y-98334695D01*
X133296498Y-98402816D01*
X133279595Y-98423790D01*
X132856290Y-98847095D01*
X132793978Y-98881121D01*
X132767195Y-98884000D01*
X131372000Y-98884000D01*
X131303879Y-98863998D01*
X131257386Y-98810342D01*
X131246000Y-98758000D01*
X131246000Y-98357885D01*
X131754000Y-98357885D01*
X131758475Y-98373124D01*
X131759865Y-98374329D01*
X131767548Y-98376000D01*
X132818344Y-98376000D01*
X132831875Y-98372027D01*
X132833180Y-98362947D01*
X132791214Y-98195875D01*
X132787894Y-98186124D01*
X132702972Y-97990814D01*
X132698105Y-97981739D01*
X132582426Y-97802926D01*
X132576136Y-97794757D01*
X132432806Y-97637240D01*
X132425273Y-97630215D01*
X132258139Y-97498222D01*
X132249552Y-97492517D01*
X132063117Y-97389599D01*
X132053705Y-97385369D01*
X131852959Y-97314280D01*
X131842988Y-97311646D01*
X131771837Y-97298972D01*
X131758540Y-97300432D01*
X131754000Y-97314989D01*
X131754000Y-98357885D01*
X131246000Y-98357885D01*
X131246000Y-97313102D01*
X131242082Y-97299758D01*
X131227806Y-97297771D01*
X131189324Y-97303660D01*
X131179288Y-97306051D01*
X130976868Y-97372212D01*
X130967359Y-97376209D01*
X130778463Y-97474542D01*
X130769738Y-97480036D01*
X130599433Y-97607905D01*
X130591726Y-97614748D01*
X130444590Y-97768717D01*
X130438104Y-97776727D01*
X130318098Y-97952649D01*
X130313000Y-97961623D01*
X130298288Y-97993317D01*
X130251464Y-98046684D01*
X130183221Y-98066265D01*
X130115225Y-98045842D01*
X130069065Y-97991900D01*
X130058000Y-97940267D01*
X130058000Y-95708095D01*
X130078002Y-95639974D01*
X130131658Y-95593481D01*
X130201932Y-95583377D01*
X130266512Y-95612871D01*
X130291433Y-95642260D01*
X130357694Y-95750388D01*
X130363777Y-95758699D01*
X130503213Y-95919667D01*
X130510580Y-95926883D01*
X130674434Y-96062916D01*
X130682881Y-96068831D01*
X130866756Y-96176279D01*
X130876042Y-96180729D01*
X131075001Y-96256703D01*
X131084899Y-96259579D01*
X131188250Y-96280606D01*
X131202299Y-96279410D01*
X131206000Y-96269065D01*
X131206000Y-94822000D01*
X131226002Y-94753879D01*
X131279658Y-94707386D01*
X131332000Y-94696000D01*
X131588000Y-94696000D01*
X131656121Y-94716002D01*
G37*
%TD.AperFunction*%
%TD*%
M02*
