%TF.GenerationSoftware,KiCad,Pcbnew,(6.0.2)*%
%TF.CreationDate,2023-04-03T14:54:34+02:00*%
%TF.ProjectId,IR_lights,49525f6c-6967-4687-9473-2e6b69636164,rev?*%
%TF.SameCoordinates,Original*%
%TF.FileFunction,Soldermask,Top*%
%TF.FilePolarity,Negative*%
%FSLAX46Y46*%
G04 Gerber Fmt 4.6, Leading zero omitted, Abs format (unit mm)*
G04 Created by KiCad (PCBNEW (6.0.2)) date 2023-04-03 14:54:34*
%MOMM*%
%LPD*%
G01*
G04 APERTURE LIST*
G04 Aperture macros list*
%AMRoundRect*
0 Rectangle with rounded corners*
0 $1 Rounding radius*
0 $2 $3 $4 $5 $6 $7 $8 $9 X,Y pos of 4 corners*
0 Add a 4 corners polygon primitive as box body*
4,1,4,$2,$3,$4,$5,$6,$7,$8,$9,$2,$3,0*
0 Add four circle primitives for the rounded corners*
1,1,$1+$1,$2,$3*
1,1,$1+$1,$4,$5*
1,1,$1+$1,$6,$7*
1,1,$1+$1,$8,$9*
0 Add four rect primitives between the rounded corners*
20,1,$1+$1,$2,$3,$4,$5,0*
20,1,$1+$1,$4,$5,$6,$7,0*
20,1,$1+$1,$6,$7,$8,$9,0*
20,1,$1+$1,$8,$9,$2,$3,0*%
G04 Aperture macros list end*
%ADD10RoundRect,0.150000X-0.587500X-0.150000X0.587500X-0.150000X0.587500X0.150000X-0.587500X0.150000X0*%
%ADD11R,1.700000X1.700000*%
%ADD12O,1.700000X1.700000*%
%ADD13RoundRect,0.135000X0.135000X0.185000X-0.135000X0.185000X-0.135000X-0.185000X0.135000X-0.185000X0*%
%ADD14RoundRect,0.147500X0.147500X0.172500X-0.147500X0.172500X-0.147500X-0.172500X0.147500X-0.172500X0*%
%ADD15RoundRect,0.135000X0.185000X-0.135000X0.185000X0.135000X-0.185000X0.135000X-0.185000X-0.135000X0*%
%ADD16RoundRect,0.140000X-0.170000X0.140000X-0.170000X-0.140000X0.170000X-0.140000X0.170000X0.140000X0*%
%ADD17RoundRect,0.147500X-0.147500X-0.172500X0.147500X-0.172500X0.147500X0.172500X-0.147500X0.172500X0*%
%ADD18R,1.150000X1.000000*%
%ADD19RoundRect,0.062500X0.337500X0.062500X-0.337500X0.062500X-0.337500X-0.062500X0.337500X-0.062500X0*%
%ADD20RoundRect,0.062500X0.062500X0.337500X-0.062500X0.337500X-0.062500X-0.337500X0.062500X-0.337500X0*%
%ADD21R,3.600000X3.600000*%
%ADD22RoundRect,0.135000X-0.135000X-0.185000X0.135000X-0.185000X0.135000X0.185000X-0.135000X0.185000X0*%
%ADD23RoundRect,0.140000X0.140000X0.170000X-0.140000X0.170000X-0.140000X-0.170000X0.140000X-0.170000X0*%
%ADD24RoundRect,0.140000X-0.140000X-0.170000X0.140000X-0.170000X0.140000X0.170000X-0.140000X0.170000X0*%
%ADD25R,1.600000X0.550000*%
%ADD26R,0.550000X1.600000*%
%ADD27RoundRect,0.140000X0.170000X-0.140000X0.170000X0.140000X-0.170000X0.140000X-0.170000X-0.140000X0*%
%ADD28R,1.000000X1.000000*%
%ADD29O,1.000000X1.000000*%
%ADD30R,1.800000X1.800000*%
%ADD31C,1.800000*%
G04 APERTURE END LIST*
D10*
%TO.C,Q1*%
X157075000Y-99425000D03*
X157075000Y-101325000D03*
X158950000Y-100375000D03*
%TD*%
D11*
%TO.C,J2*%
X131500000Y-106250000D03*
D12*
X131500000Y-103710000D03*
X131500000Y-101170000D03*
X131500000Y-98630000D03*
%TD*%
D13*
%TO.C,R3*%
X147960000Y-96200000D03*
X146940000Y-96200000D03*
%TD*%
D14*
%TO.C,D1*%
X147935000Y-95175000D03*
X146965000Y-95175000D03*
%TD*%
D15*
%TO.C,R2*%
X146525000Y-108910000D03*
X146525000Y-107890000D03*
%TD*%
D16*
%TO.C,C8*%
X155475000Y-98295000D03*
X155475000Y-99255000D03*
%TD*%
D17*
%TO.C,D3*%
X152832500Y-110500000D03*
X153802500Y-110500000D03*
%TD*%
D18*
%TO.C,L3*%
X150100000Y-94950000D03*
X152450000Y-94950000D03*
%TD*%
D11*
%TO.C,J3*%
X134000000Y-94950000D03*
D12*
X131460000Y-94950000D03*
%TD*%
D19*
%TO.C,U1*%
X152100000Y-103825000D03*
X152100000Y-103325000D03*
X152100000Y-102825000D03*
X152100000Y-102325000D03*
X152100000Y-101825000D03*
X152100000Y-101325000D03*
X152100000Y-100825000D03*
X152100000Y-100325000D03*
D20*
X151400000Y-99625000D03*
X150900000Y-99625000D03*
X150400000Y-99625000D03*
X149900000Y-99625000D03*
X149400000Y-99625000D03*
X148900000Y-99625000D03*
X148400000Y-99625000D03*
X147900000Y-99625000D03*
D19*
X147200000Y-100325000D03*
X147200000Y-100825000D03*
X147200000Y-101325000D03*
X147200000Y-101825000D03*
X147200000Y-102325000D03*
X147200000Y-102825000D03*
X147200000Y-103325000D03*
X147200000Y-103825000D03*
D20*
X147900000Y-104525000D03*
X148400000Y-104525000D03*
X148900000Y-104525000D03*
X149400000Y-104525000D03*
X149900000Y-104525000D03*
X150400000Y-104525000D03*
X150900000Y-104525000D03*
X151400000Y-104525000D03*
D21*
X149650000Y-102075000D03*
%TD*%
D22*
%TO.C,R8*%
X152807500Y-109425000D03*
X153827500Y-109425000D03*
%TD*%
D13*
%TO.C,R9*%
X153810000Y-108375000D03*
X152790000Y-108375000D03*
%TD*%
D23*
%TO.C,C21*%
X155535000Y-94250000D03*
X154575000Y-94250000D03*
%TD*%
D15*
%TO.C,R1*%
X150425000Y-108910000D03*
X150425000Y-107890000D03*
%TD*%
D24*
%TO.C,C5*%
X147495000Y-107925000D03*
X148455000Y-107925000D03*
%TD*%
%TO.C,C4*%
X149495000Y-109900000D03*
X150455000Y-109900000D03*
%TD*%
D25*
%TO.C,U2*%
X153900000Y-104875000D03*
X153900000Y-104075000D03*
X153900000Y-103275000D03*
X153900000Y-102475000D03*
X153900000Y-101675000D03*
X153900000Y-100875000D03*
X153900000Y-100075000D03*
X153900000Y-99275000D03*
D26*
X152450000Y-97825000D03*
X151650000Y-97825000D03*
X150850000Y-97825000D03*
X150050000Y-97825000D03*
X149250000Y-97825000D03*
X148450000Y-97825000D03*
X147650000Y-97825000D03*
X146850000Y-97825000D03*
D25*
X145400000Y-99275000D03*
X145400000Y-100075000D03*
X145400000Y-100875000D03*
X145400000Y-101675000D03*
X145400000Y-102475000D03*
X145400000Y-103275000D03*
X145400000Y-104075000D03*
X145400000Y-104875000D03*
D26*
X146850000Y-106325000D03*
X147650000Y-106325000D03*
X148450000Y-106325000D03*
X149250000Y-106325000D03*
X150050000Y-106325000D03*
X150850000Y-106325000D03*
X151650000Y-106325000D03*
X152450000Y-106325000D03*
%TD*%
D27*
%TO.C,C2*%
X154600000Y-96180000D03*
X154600000Y-95220000D03*
%TD*%
D28*
%TO.C,J1*%
X135975000Y-109775000D03*
D29*
X135975000Y-111045000D03*
X134705000Y-109775000D03*
X134705000Y-111045000D03*
X133435000Y-109775000D03*
X133435000Y-111045000D03*
X132165000Y-109775000D03*
X132165000Y-111045000D03*
X130895000Y-109775000D03*
X130895000Y-111045000D03*
%TD*%
D27*
%TO.C,C3*%
X149425000Y-108855000D03*
X149425000Y-107895000D03*
%TD*%
D30*
%TO.C,D4*%
X185900000Y-101375000D03*
D31*
X185900000Y-103915000D03*
%TD*%
M02*
