%TF.GenerationSoftware,KiCad,Pcbnew,(6.0.2)*%
%TF.CreationDate,2023-04-03T14:54:34+02:00*%
%TF.ProjectId,IR_lights,49525f6c-6967-4687-9473-2e6b69636164,rev?*%
%TF.SameCoordinates,Original*%
%TF.FileFunction,Legend,Top*%
%TF.FilePolarity,Positive*%
%FSLAX46Y46*%
G04 Gerber Fmt 4.6, Leading zero omitted, Abs format (unit mm)*
G04 Created by KiCad (PCBNEW (6.0.2)) date 2023-04-03 14:54:34*
%MOMM*%
%LPD*%
G01*
G04 APERTURE LIST*
%ADD10C,0.150000*%
%ADD11C,0.254000*%
%ADD12C,0.120000*%
%ADD13C,0.100000*%
%ADD14C,0.200000*%
G04 APERTURE END LIST*
D10*
%TO.C,Q1*%
X161079761Y-100447619D02*
X160984523Y-100400000D01*
X160889285Y-100304761D01*
X160746428Y-100161904D01*
X160651190Y-100114285D01*
X160555952Y-100114285D01*
X160603571Y-100352380D02*
X160508333Y-100304761D01*
X160413095Y-100209523D01*
X160365476Y-100019047D01*
X160365476Y-99685714D01*
X160413095Y-99495238D01*
X160508333Y-99400000D01*
X160603571Y-99352380D01*
X160794047Y-99352380D01*
X160889285Y-99400000D01*
X160984523Y-99495238D01*
X161032142Y-99685714D01*
X161032142Y-100019047D01*
X160984523Y-100209523D01*
X160889285Y-100304761D01*
X160794047Y-100352380D01*
X160603571Y-100352380D01*
X161984523Y-100352380D02*
X161413095Y-100352380D01*
X161698809Y-100352380D02*
X161698809Y-99352380D01*
X161603571Y-99495238D01*
X161508333Y-99590476D01*
X161413095Y-99638095D01*
%TO.C,J2*%
X133177380Y-98383333D02*
X133891666Y-98383333D01*
X134034523Y-98430952D01*
X134129761Y-98526190D01*
X134177380Y-98669047D01*
X134177380Y-98764285D01*
X133272619Y-97954761D02*
X133225000Y-97907142D01*
X133177380Y-97811904D01*
X133177380Y-97573809D01*
X133225000Y-97478571D01*
X133272619Y-97430952D01*
X133367857Y-97383333D01*
X133463095Y-97383333D01*
X133605952Y-97430952D01*
X134177380Y-98002380D01*
X134177380Y-97383333D01*
%TO.C,R3*%
X146352380Y-96041666D02*
X145876190Y-96375000D01*
X146352380Y-96613095D02*
X145352380Y-96613095D01*
X145352380Y-96232142D01*
X145400000Y-96136904D01*
X145447619Y-96089285D01*
X145542857Y-96041666D01*
X145685714Y-96041666D01*
X145780952Y-96089285D01*
X145828571Y-96136904D01*
X145876190Y-96232142D01*
X145876190Y-96613095D01*
X145352380Y-95708333D02*
X145352380Y-95089285D01*
X145733333Y-95422619D01*
X145733333Y-95279761D01*
X145780952Y-95184523D01*
X145828571Y-95136904D01*
X145923809Y-95089285D01*
X146161904Y-95089285D01*
X146257142Y-95136904D01*
X146304761Y-95184523D01*
X146352380Y-95279761D01*
X146352380Y-95565476D01*
X146304761Y-95660714D01*
X146257142Y-95708333D01*
%TO.C,D1*%
X146327380Y-94713095D02*
X145327380Y-94713095D01*
X145327380Y-94475000D01*
X145375000Y-94332142D01*
X145470238Y-94236904D01*
X145565476Y-94189285D01*
X145755952Y-94141666D01*
X145898809Y-94141666D01*
X146089285Y-94189285D01*
X146184523Y-94236904D01*
X146279761Y-94332142D01*
X146327380Y-94475000D01*
X146327380Y-94713095D01*
X146327380Y-93189285D02*
X146327380Y-93760714D01*
X146327380Y-93475000D02*
X145327380Y-93475000D01*
X145470238Y-93570238D01*
X145565476Y-93665476D01*
X145613095Y-93760714D01*
%TO.C,R2*%
X145877380Y-108641666D02*
X145401190Y-108975000D01*
X145877380Y-109213095D02*
X144877380Y-109213095D01*
X144877380Y-108832142D01*
X144925000Y-108736904D01*
X144972619Y-108689285D01*
X145067857Y-108641666D01*
X145210714Y-108641666D01*
X145305952Y-108689285D01*
X145353571Y-108736904D01*
X145401190Y-108832142D01*
X145401190Y-109213095D01*
X144972619Y-108260714D02*
X144925000Y-108213095D01*
X144877380Y-108117857D01*
X144877380Y-107879761D01*
X144925000Y-107784523D01*
X144972619Y-107736904D01*
X145067857Y-107689285D01*
X145163095Y-107689285D01*
X145305952Y-107736904D01*
X145877380Y-108308333D01*
X145877380Y-107689285D01*
%TO.C,C8*%
X156708333Y-98432142D02*
X156660714Y-98479761D01*
X156517857Y-98527380D01*
X156422619Y-98527380D01*
X156279761Y-98479761D01*
X156184523Y-98384523D01*
X156136904Y-98289285D01*
X156089285Y-98098809D01*
X156089285Y-97955952D01*
X156136904Y-97765476D01*
X156184523Y-97670238D01*
X156279761Y-97575000D01*
X156422619Y-97527380D01*
X156517857Y-97527380D01*
X156660714Y-97575000D01*
X156708333Y-97622619D01*
X157279761Y-97955952D02*
X157184523Y-97908333D01*
X157136904Y-97860714D01*
X157089285Y-97765476D01*
X157089285Y-97717857D01*
X157136904Y-97622619D01*
X157184523Y-97575000D01*
X157279761Y-97527380D01*
X157470238Y-97527380D01*
X157565476Y-97575000D01*
X157613095Y-97622619D01*
X157660714Y-97717857D01*
X157660714Y-97765476D01*
X157613095Y-97860714D01*
X157565476Y-97908333D01*
X157470238Y-97955952D01*
X157279761Y-97955952D01*
X157184523Y-98003571D01*
X157136904Y-98051190D01*
X157089285Y-98146428D01*
X157089285Y-98336904D01*
X157136904Y-98432142D01*
X157184523Y-98479761D01*
X157279761Y-98527380D01*
X157470238Y-98527380D01*
X157565476Y-98479761D01*
X157613095Y-98432142D01*
X157660714Y-98336904D01*
X157660714Y-98146428D01*
X157613095Y-98051190D01*
X157565476Y-98003571D01*
X157470238Y-97955952D01*
%TO.C,D3*%
X152579404Y-112077380D02*
X152579404Y-111077380D01*
X152817500Y-111077380D01*
X152960357Y-111125000D01*
X153055595Y-111220238D01*
X153103214Y-111315476D01*
X153150833Y-111505952D01*
X153150833Y-111648809D01*
X153103214Y-111839285D01*
X153055595Y-111934523D01*
X152960357Y-112029761D01*
X152817500Y-112077380D01*
X152579404Y-112077380D01*
X153484166Y-111077380D02*
X154103214Y-111077380D01*
X153769880Y-111458333D01*
X153912738Y-111458333D01*
X154007976Y-111505952D01*
X154055595Y-111553571D01*
X154103214Y-111648809D01*
X154103214Y-111886904D01*
X154055595Y-111982142D01*
X154007976Y-112029761D01*
X153912738Y-112077380D01*
X153627023Y-112077380D01*
X153531785Y-112029761D01*
X153484166Y-111982142D01*
D11*
%TO.C,L3*%
X147238333Y-94499523D02*
X146633571Y-94499523D01*
X146633571Y-93229523D01*
X147540714Y-93229523D02*
X148326904Y-93229523D01*
X147903571Y-93713333D01*
X148085000Y-93713333D01*
X148205952Y-93773809D01*
X148266428Y-93834285D01*
X148326904Y-93955238D01*
X148326904Y-94257619D01*
X148266428Y-94378571D01*
X148205952Y-94439047D01*
X148085000Y-94499523D01*
X147722142Y-94499523D01*
X147601190Y-94439047D01*
X147540714Y-94378571D01*
D10*
%TO.C,J3*%
X136222380Y-95283333D02*
X136936666Y-95283333D01*
X137079523Y-95330952D01*
X137174761Y-95426190D01*
X137222380Y-95569047D01*
X137222380Y-95664285D01*
X136222380Y-94902380D02*
X136222380Y-94283333D01*
X136603333Y-94616666D01*
X136603333Y-94473809D01*
X136650952Y-94378571D01*
X136698571Y-94330952D01*
X136793809Y-94283333D01*
X137031904Y-94283333D01*
X137127142Y-94330952D01*
X137174761Y-94378571D01*
X137222380Y-94473809D01*
X137222380Y-94759523D01*
X137174761Y-94854761D01*
X137127142Y-94902380D01*
%TO.C,U1*%
X144702380Y-107111904D02*
X145511904Y-107111904D01*
X145607142Y-107064285D01*
X145654761Y-107016666D01*
X145702380Y-106921428D01*
X145702380Y-106730952D01*
X145654761Y-106635714D01*
X145607142Y-106588095D01*
X145511904Y-106540476D01*
X144702380Y-106540476D01*
X145702380Y-105540476D02*
X145702380Y-106111904D01*
X145702380Y-105826190D02*
X144702380Y-105826190D01*
X144845238Y-105921428D01*
X144940476Y-106016666D01*
X144988095Y-106111904D01*
%TO.C,R8*%
X155058333Y-110152380D02*
X154725000Y-109676190D01*
X154486904Y-110152380D02*
X154486904Y-109152380D01*
X154867857Y-109152380D01*
X154963095Y-109200000D01*
X155010714Y-109247619D01*
X155058333Y-109342857D01*
X155058333Y-109485714D01*
X155010714Y-109580952D01*
X154963095Y-109628571D01*
X154867857Y-109676190D01*
X154486904Y-109676190D01*
X155629761Y-109580952D02*
X155534523Y-109533333D01*
X155486904Y-109485714D01*
X155439285Y-109390476D01*
X155439285Y-109342857D01*
X155486904Y-109247619D01*
X155534523Y-109200000D01*
X155629761Y-109152380D01*
X155820238Y-109152380D01*
X155915476Y-109200000D01*
X155963095Y-109247619D01*
X156010714Y-109342857D01*
X156010714Y-109390476D01*
X155963095Y-109485714D01*
X155915476Y-109533333D01*
X155820238Y-109580952D01*
X155629761Y-109580952D01*
X155534523Y-109628571D01*
X155486904Y-109676190D01*
X155439285Y-109771428D01*
X155439285Y-109961904D01*
X155486904Y-110057142D01*
X155534523Y-110104761D01*
X155629761Y-110152380D01*
X155820238Y-110152380D01*
X155915476Y-110104761D01*
X155963095Y-110057142D01*
X156010714Y-109961904D01*
X156010714Y-109771428D01*
X155963095Y-109676190D01*
X155915476Y-109628571D01*
X155820238Y-109580952D01*
%TO.C,R9*%
X155058333Y-108877380D02*
X154725000Y-108401190D01*
X154486904Y-108877380D02*
X154486904Y-107877380D01*
X154867857Y-107877380D01*
X154963095Y-107925000D01*
X155010714Y-107972619D01*
X155058333Y-108067857D01*
X155058333Y-108210714D01*
X155010714Y-108305952D01*
X154963095Y-108353571D01*
X154867857Y-108401190D01*
X154486904Y-108401190D01*
X155534523Y-108877380D02*
X155725000Y-108877380D01*
X155820238Y-108829761D01*
X155867857Y-108782142D01*
X155963095Y-108639285D01*
X156010714Y-108448809D01*
X156010714Y-108067857D01*
X155963095Y-107972619D01*
X155915476Y-107925000D01*
X155820238Y-107877380D01*
X155629761Y-107877380D01*
X155534523Y-107925000D01*
X155486904Y-107972619D01*
X155439285Y-108067857D01*
X155439285Y-108305952D01*
X155486904Y-108401190D01*
X155534523Y-108448809D01*
X155629761Y-108496428D01*
X155820238Y-108496428D01*
X155915476Y-108448809D01*
X155963095Y-108401190D01*
X156010714Y-108305952D01*
%TO.C,C21*%
X157482142Y-95142857D02*
X157529761Y-95190476D01*
X157577380Y-95333333D01*
X157577380Y-95428571D01*
X157529761Y-95571428D01*
X157434523Y-95666666D01*
X157339285Y-95714285D01*
X157148809Y-95761904D01*
X157005952Y-95761904D01*
X156815476Y-95714285D01*
X156720238Y-95666666D01*
X156625000Y-95571428D01*
X156577380Y-95428571D01*
X156577380Y-95333333D01*
X156625000Y-95190476D01*
X156672619Y-95142857D01*
X156672619Y-94761904D02*
X156625000Y-94714285D01*
X156577380Y-94619047D01*
X156577380Y-94380952D01*
X156625000Y-94285714D01*
X156672619Y-94238095D01*
X156767857Y-94190476D01*
X156863095Y-94190476D01*
X157005952Y-94238095D01*
X157577380Y-94809523D01*
X157577380Y-94190476D01*
X157577380Y-93238095D02*
X157577380Y-93809523D01*
X157577380Y-93523809D02*
X156577380Y-93523809D01*
X156720238Y-93619047D01*
X156815476Y-93714285D01*
X156863095Y-93809523D01*
%TO.C,R1*%
X152027380Y-108491666D02*
X151551190Y-108825000D01*
X152027380Y-109063095D02*
X151027380Y-109063095D01*
X151027380Y-108682142D01*
X151075000Y-108586904D01*
X151122619Y-108539285D01*
X151217857Y-108491666D01*
X151360714Y-108491666D01*
X151455952Y-108539285D01*
X151503571Y-108586904D01*
X151551190Y-108682142D01*
X151551190Y-109063095D01*
X152027380Y-107539285D02*
X152027380Y-108110714D01*
X152027380Y-107825000D02*
X151027380Y-107825000D01*
X151170238Y-107920238D01*
X151265476Y-108015476D01*
X151313095Y-108110714D01*
%TO.C,C5*%
X147783333Y-109382142D02*
X147735714Y-109429761D01*
X147592857Y-109477380D01*
X147497619Y-109477380D01*
X147354761Y-109429761D01*
X147259523Y-109334523D01*
X147211904Y-109239285D01*
X147164285Y-109048809D01*
X147164285Y-108905952D01*
X147211904Y-108715476D01*
X147259523Y-108620238D01*
X147354761Y-108525000D01*
X147497619Y-108477380D01*
X147592857Y-108477380D01*
X147735714Y-108525000D01*
X147783333Y-108572619D01*
X148688095Y-108477380D02*
X148211904Y-108477380D01*
X148164285Y-108953571D01*
X148211904Y-108905952D01*
X148307142Y-108858333D01*
X148545238Y-108858333D01*
X148640476Y-108905952D01*
X148688095Y-108953571D01*
X148735714Y-109048809D01*
X148735714Y-109286904D01*
X148688095Y-109382142D01*
X148640476Y-109429761D01*
X148545238Y-109477380D01*
X148307142Y-109477380D01*
X148211904Y-109429761D01*
X148164285Y-109382142D01*
%TO.C,C4*%
X149783333Y-111332142D02*
X149735714Y-111379761D01*
X149592857Y-111427380D01*
X149497619Y-111427380D01*
X149354761Y-111379761D01*
X149259523Y-111284523D01*
X149211904Y-111189285D01*
X149164285Y-110998809D01*
X149164285Y-110855952D01*
X149211904Y-110665476D01*
X149259523Y-110570238D01*
X149354761Y-110475000D01*
X149497619Y-110427380D01*
X149592857Y-110427380D01*
X149735714Y-110475000D01*
X149783333Y-110522619D01*
X150640476Y-110760714D02*
X150640476Y-111427380D01*
X150402380Y-110379761D02*
X150164285Y-111094047D01*
X150783333Y-111094047D01*
%TO.C,U2*%
X144702380Y-98636904D02*
X145511904Y-98636904D01*
X145607142Y-98589285D01*
X145654761Y-98541666D01*
X145702380Y-98446428D01*
X145702380Y-98255952D01*
X145654761Y-98160714D01*
X145607142Y-98113095D01*
X145511904Y-98065476D01*
X144702380Y-98065476D01*
X144797619Y-97636904D02*
X144750000Y-97589285D01*
X144702380Y-97494047D01*
X144702380Y-97255952D01*
X144750000Y-97160714D01*
X144797619Y-97113095D01*
X144892857Y-97065476D01*
X144988095Y-97065476D01*
X145130952Y-97113095D01*
X145702380Y-97684523D01*
X145702380Y-97065476D01*
%TO.C,C2*%
X156182142Y-95966666D02*
X156229761Y-96014285D01*
X156277380Y-96157142D01*
X156277380Y-96252380D01*
X156229761Y-96395238D01*
X156134523Y-96490476D01*
X156039285Y-96538095D01*
X155848809Y-96585714D01*
X155705952Y-96585714D01*
X155515476Y-96538095D01*
X155420238Y-96490476D01*
X155325000Y-96395238D01*
X155277380Y-96252380D01*
X155277380Y-96157142D01*
X155325000Y-96014285D01*
X155372619Y-95966666D01*
X155372619Y-95585714D02*
X155325000Y-95538095D01*
X155277380Y-95442857D01*
X155277380Y-95204761D01*
X155325000Y-95109523D01*
X155372619Y-95061904D01*
X155467857Y-95014285D01*
X155563095Y-95014285D01*
X155705952Y-95061904D01*
X156277380Y-95633333D01*
X156277380Y-95014285D01*
%TO.C,J1*%
X137122380Y-110743333D02*
X137836666Y-110743333D01*
X137979523Y-110790952D01*
X138074761Y-110886190D01*
X138122380Y-111029047D01*
X138122380Y-111124285D01*
X138122380Y-109743333D02*
X138122380Y-110314761D01*
X138122380Y-110029047D02*
X137122380Y-110029047D01*
X137265238Y-110124285D01*
X137360476Y-110219523D01*
X137408095Y-110314761D01*
%TO.C,C3*%
X148682142Y-110816666D02*
X148729761Y-110864285D01*
X148777380Y-111007142D01*
X148777380Y-111102380D01*
X148729761Y-111245238D01*
X148634523Y-111340476D01*
X148539285Y-111388095D01*
X148348809Y-111435714D01*
X148205952Y-111435714D01*
X148015476Y-111388095D01*
X147920238Y-111340476D01*
X147825000Y-111245238D01*
X147777380Y-111102380D01*
X147777380Y-111007142D01*
X147825000Y-110864285D01*
X147872619Y-110816666D01*
X147777380Y-110483333D02*
X147777380Y-109864285D01*
X148158333Y-110197619D01*
X148158333Y-110054761D01*
X148205952Y-109959523D01*
X148253571Y-109911904D01*
X148348809Y-109864285D01*
X148586904Y-109864285D01*
X148682142Y-109911904D01*
X148729761Y-109959523D01*
X148777380Y-110054761D01*
X148777380Y-110340476D01*
X148729761Y-110435714D01*
X148682142Y-110483333D01*
%TO.C,D4*%
X183602380Y-107663095D02*
X182602380Y-107663095D01*
X182602380Y-107425000D01*
X182650000Y-107282142D01*
X182745238Y-107186904D01*
X182840476Y-107139285D01*
X183030952Y-107091666D01*
X183173809Y-107091666D01*
X183364285Y-107139285D01*
X183459523Y-107186904D01*
X183554761Y-107282142D01*
X183602380Y-107425000D01*
X183602380Y-107663095D01*
X182935714Y-106234523D02*
X183602380Y-106234523D01*
X182554761Y-106472619D02*
X183269047Y-106710714D01*
X183269047Y-106091666D01*
D12*
%TO.C,Q1*%
X158012500Y-98815000D02*
X158662500Y-98815000D01*
X158012500Y-101935000D02*
X158662500Y-101935000D01*
X158012500Y-98815000D02*
X156337500Y-98815000D01*
X158012500Y-101935000D02*
X157362500Y-101935000D01*
%TO.C,J2*%
X132830000Y-97300000D02*
X130170000Y-97300000D01*
X132830000Y-107580000D02*
X131500000Y-107580000D01*
X132830000Y-104980000D02*
X130170000Y-104980000D01*
X132830000Y-106250000D02*
X132830000Y-107580000D01*
X130170000Y-104980000D02*
X130170000Y-97300000D01*
X132830000Y-104980000D02*
X132830000Y-97300000D01*
%TO.C,R3*%
X147603641Y-96580000D02*
X147296359Y-96580000D01*
X147603641Y-95820000D02*
X147296359Y-95820000D01*
D13*
%TO.C,D1*%
X148590000Y-95175000D02*
G75*
G03*
X148590000Y-95175000I-50000J0D01*
G01*
D12*
%TO.C,R2*%
X146905000Y-108553641D02*
X146905000Y-108246359D01*
X146145000Y-108553641D02*
X146145000Y-108246359D01*
%TO.C,C8*%
X155115000Y-98667164D02*
X155115000Y-98882836D01*
X155835000Y-98667164D02*
X155835000Y-98882836D01*
D13*
%TO.C,D3*%
X152277500Y-110500000D02*
G75*
G03*
X152277500Y-110500000I-50000J0D01*
G01*
D14*
%TO.C,L3*%
X151275000Y-94425000D02*
X151275000Y-95475000D01*
D12*
%TO.C,J3*%
X135330000Y-94950000D02*
X135330000Y-96280000D01*
X135330000Y-96280000D02*
X134000000Y-96280000D01*
X132730000Y-93620000D02*
X130130000Y-93620000D01*
X132730000Y-96280000D02*
X130130000Y-96280000D01*
X130130000Y-93620000D02*
X130130000Y-96280000D01*
X132730000Y-93620000D02*
X132730000Y-96280000D01*
%TO.C,U1*%
X151785000Y-104685000D02*
X152260000Y-104685000D01*
X147040000Y-99465000D02*
X147040000Y-99940000D01*
X147515000Y-104685000D02*
X147040000Y-104685000D01*
X147040000Y-104685000D02*
X147040000Y-104210000D01*
X152260000Y-99465000D02*
X152260000Y-99940000D01*
X151785000Y-99465000D02*
X152260000Y-99465000D01*
X147515000Y-99465000D02*
X147040000Y-99465000D01*
%TO.C,R8*%
X153163859Y-109045000D02*
X153471141Y-109045000D01*
X153163859Y-109805000D02*
X153471141Y-109805000D01*
%TO.C,R9*%
X153453641Y-108755000D02*
X153146359Y-108755000D01*
X153453641Y-107995000D02*
X153146359Y-107995000D01*
%TO.C,C21*%
X155162836Y-93890000D02*
X154947164Y-93890000D01*
X155162836Y-94610000D02*
X154947164Y-94610000D01*
%TO.C,R1*%
X150045000Y-108553641D02*
X150045000Y-108246359D01*
X150805000Y-108553641D02*
X150805000Y-108246359D01*
%TO.C,C5*%
X147867164Y-107565000D02*
X148082836Y-107565000D01*
X147867164Y-108285000D02*
X148082836Y-108285000D01*
%TO.C,C4*%
X149867164Y-110260000D02*
X150082836Y-110260000D01*
X149867164Y-109540000D02*
X150082836Y-109540000D01*
D10*
%TO.C,U2*%
X153275000Y-105700000D02*
X153275000Y-105475000D01*
X153275000Y-98450000D02*
X153275000Y-98775000D01*
X146025000Y-105700000D02*
X146350000Y-105700000D01*
X153275000Y-105475000D02*
X154700000Y-105475000D01*
X146025000Y-98450000D02*
X146025000Y-98775000D01*
X153275000Y-98450000D02*
X152950000Y-98450000D01*
X146025000Y-105700000D02*
X146025000Y-105375000D01*
X146025000Y-98450000D02*
X146350000Y-98450000D01*
X153275000Y-105700000D02*
X152950000Y-105700000D01*
D12*
%TO.C,C2*%
X154240000Y-95807836D02*
X154240000Y-95592164D01*
X154960000Y-95807836D02*
X154960000Y-95592164D01*
%TO.C,J1*%
X135215000Y-108645000D02*
X130200000Y-108645000D01*
X130200000Y-111352530D02*
X130200000Y-112175000D01*
X136670000Y-110535000D02*
X136670000Y-110737470D01*
X136735000Y-108645000D02*
X136735000Y-109775000D01*
X130200000Y-108645000D02*
X130200000Y-109467470D01*
X130200000Y-110082530D02*
X130200000Y-110737470D01*
X136538471Y-110535000D02*
X136670000Y-110535000D01*
X135268471Y-110535000D02*
X135411529Y-110535000D01*
X135975000Y-108645000D02*
X136735000Y-108645000D01*
X135215000Y-110338471D02*
X135215000Y-110481529D01*
X136670000Y-112175000D02*
X130200000Y-112175000D01*
X136670000Y-111352530D02*
X136670000Y-112175000D01*
X135215000Y-108645000D02*
X135215000Y-109211529D01*
%TO.C,C3*%
X149065000Y-108482836D02*
X149065000Y-108267164D01*
X149785000Y-108482836D02*
X149785000Y-108267164D01*
%TO.C,D4*%
X187445000Y-100085000D02*
X184355000Y-100085000D01*
X185899538Y-105635000D02*
G75*
G03*
X187444830Y-100085000I462J2990000D01*
G01*
X184355170Y-100085000D02*
G75*
G03*
X185900462Y-105635000I1544830J-2560000D01*
G01*
X188400000Y-102645000D02*
G75*
G03*
X188400000Y-102645000I-2500000J0D01*
G01*
%TD*%
M02*
